<?xml version="1.0" encoding="UTF-8"?>
<!DOCTYPE svg PUBLIC "-//W3C//DTD SVG 1.1//EN" "http://www.w3.org/Graphics/SVG/1.1/DTD/svg11.dtd">
<!-- Creator: CorelDRAW 2018 (64-Bit) -->
<svg xmlns="http://www.w3.org/2000/svg" xml:space="preserve" width="0.500102in" height="0.500055in" version="1.1" style="shape-rendering:geometricPrecision; text-rendering:geometricPrecision; image-rendering:optimizeQuality; fill-rule:evenodd; clip-rule:evenodd"
viewBox="0 0 500.1 500.06"
 xmlns:xlink="http://www.w3.org/1999/xlink">
 <defs>
  <style type="text/css">
   <![CDATA[
    .fil10 {fill:#F2C2B0}
    .fil11 {fill:#E98A70}
    .fil14 {fill:#F06277}
    .fil8 {fill:#ED853B}
    .fil9 {fill:#DA4641}
    .fil3 {fill:#D4C0DD}
    .fil1 {fill:#CEE6C2}
    .fil4 {fill:#C8D6EE}
    .fil15 {fill:#B38DC0}
    .fil13 {fill:#ACD79E}
    .fil2 {fill:#94539F}
    .fil7 {fill:#81A9D9}
    .fil12 {fill:#5CC6D0}
    .fil6 {fill:#51A8B1}
    .fil0 {fill:#65BD62}
    .fil5 {fill:#0077BD}
   ]]>
  </style>
 </defs>
 <g id="Layer_x0020_1">
  <metadata id="CorelCorpID_0Corel-Layer"/>
  <g id="_1163864880640">
   <path class="fil0" d="M330.22 169.83l44.84 -44.84 0 70.66c-0,29.9 24.46,54.35 54.35,54.35l-44.84 0c-29.89,0 -54.35,-24.46 -54.36,-54.35l0 -25.81z"/>
   <path class="fil1" d="M330.22 169.83l-25.81 0c-29.9,0 -54.36,-24.46 -54.36,-54.35l0 -44.84c0,29.89 24.46,54.35 54.36,54.35l70.65 0 -44.84 44.84z"/>
   <path class="fil2" d="M169.88 330.18l-44.84 44.84 -0 -70.66c0,-29.9 -24.46,-54.36 -54.35,-54.36l44.84 0c29.89,0 54.35,24.46 54.35,54.36l0 25.81z"/>
   <path class="fil3" d="M169.88 330.18l25.81 0c29.9,0 54.36,24.46 54.36,54.35l0 44.84c0,-29.89 -24.46,-54.36 -54.36,-54.35l-70.65 0 44.84 -44.84z"/>
   <path class="fil4" d="M169.88 169.83l0 25.81c0,29.89 -24.46,54.35 -54.36,54.35l-44.84 0c29.9,0 54.36,-24.46 54.36,-54.35l0 -70.66 44.84 44.84z"/>
   <path class="fil5" d="M169.88 169.83l-44.84 -44.84 70.66 0c29.89,0 54.35,-24.46 54.35,-54.35l0 44.84c0,29.9 -24.46,54.36 -54.36,54.36l-25.81 0z"/>
   <path class="fil6" d="M26.03 224c14.88,0 29.77,0 44.65,0 15.54,0 28.35,-12.81 28.35,-28.35l0 -70.49 -44.65 0c-15.54,0 -28.35,12.81 -28.35,28.35 0,23.5 0,47 0,70.49z"/>
   <path class="fil7" d="M54.38 54.31c-29.9,0 -54.36,24.46 -54.36,54.35l0 44.84c0,-29.89 24.46,-54.35 54.36,-54.35 47.11,0 94.21,0 141.31,0 29.9,0 54.36,-24.46 54.36,-54.35l0 -44.8 0 0c-0.02,29.87 -24.48,54.31 -54.36,54.31 -47.1,0 -94.21,0 -141.31,0z"/>
   <path class="fil8" d="M474.07 276.01c-14.88,0 -29.77,0 -44.65,0 -15.54,0 -28.35,12.81 -28.35,28.35l0 70.49 44.65 0c15.54,0 28.35,-12.81 28.35,-28.35 0,-23.5 0,-47 0,-70.49z"/>
   <path class="fil9" d="M330.22 330.18l44.84 44.84 -70.66 0c-29.89,0 -54.35,24.46 -54.35,54.35l0 -44.84c0,-29.89 24.46,-54.35 54.35,-54.35l25.81 0z"/>
   <path class="fil10" d="M330.22 330.18l0 -25.81c0,-29.9 24.46,-54.35 54.36,-54.36l44.84 0c-29.9,0 -54.36,24.46 -54.36,54.36l0 70.66 -44.84 -44.84z"/>
   <path class="fil11" d="M445.72 445.7c29.9,0 54.35,-24.46 54.35,-54.35l0 -44.84c0,29.89 -24.46,54.35 -54.35,54.35 -47.11,0 -94.21,0 -141.31,0 -29.89,0 -54.35,24.46 -54.35,54.35l0 44.84c0,-29.9 24.46,-54.35 54.35,-54.35 47.11,0 94.21,0 141.31,0z"/>
   <path class="fil12" d="M276.06 25.98c0,14.89 0,29.77 -0,44.65 0,15.54 12.81,28.35 28.35,28.35l70.49 0 0 -44.65c0,-15.54 -12.81,-28.35 -28.35,-28.35 -23.5,0 -46.99,0 -70.49,0z"/>
   <path class="fil13" d="M445.74 54.33c0,-29.41 -23.67,-53.56 -52.91,-54.33l-44.84 0c29.23,0.78 52.9,24.93 52.9,54.33 0,47.11 0,94.21 0,141.31 0,29.9 24.46,54.35 54.36,54.35l44.84 0c-29.9,0 -54.36,-24.46 -54.36,-54.35 0,-47.1 0,-94.21 0,-141.31z"/>
   <path class="fil14" d="M224.04 474.03c0,-14.89 0,-29.77 0,-44.65 0,-15.54 -12.81,-28.35 -28.35,-28.35l-70.49 0 0 44.65c0,15.54 12.81,28.35 28.35,28.35 23.5,0 46.99,0 70.49,0z"/>
   <path class="fil15" d="M54.35 445.68c0,29.89 24.46,54.35 54.36,54.35l44.84 0c-29.9,0 -54.36,-24.46 -54.36,-54.35 0,-47.11 0,-94.21 0,-141.31 0,-29.9 -24.46,-54.36 -54.35,-54.36l-44.84 0c29.9,0 54.35,24.46 54.35,54.36 0,47.1 0,94.21 0,141.31z"/>
  </g>
 </g>
</svg>
