<?xml version="1.0" encoding="UTF-8"?>
<!DOCTYPE svg PUBLIC "-//W3C//DTD SVG 1.1//EN" "http://www.w3.org/Graphics/SVG/1.1/DTD/svg11.dtd">
<!-- Creator: CorelDRAW 2018 (64-Bit) -->
<svg xmlns="http://www.w3.org/2000/svg" xml:space="preserve" width="5.92082in" height="6.30561in" version="1.1" style="shape-rendering:geometricPrecision; text-rendering:geometricPrecision; image-rendering:optimizeQuality; fill-rule:evenodd; clip-rule:evenodd"
viewBox="0 0 5920.82 6305.6"
 xmlns:xlink="http://www.w3.org/1999/xlink">
 <defs>
  <style type="text/css">
   <![CDATA[
    .fil9 {fill:white}
    .fil6 {fill:black;fill-rule:nonzero}
    .fil5 {fill:#263138;fill-rule:nonzero}
    .fil7 {fill:#445964;fill-rule:nonzero}
    .fil0 {fill:#DFDFDF;fill-rule:nonzero}
    .fil11 {fill:#EB996E;fill-rule:nonzero}
    .fil2 {fill:#EBEBEB;fill-rule:nonzero}
    .fil1 {fill:#F4F4F4;fill-rule:nonzero}
    .fil3 {fill:#F9F9F9;fill-rule:nonzero}
    .fil4 {fill:#FF725D;fill-rule:nonzero}
    .fil10 {fill:#FFBD9C;fill-rule:nonzero}
    .fil8 {fill:white;fill-rule:nonzero}
    .fil12 {fill:black;fill-rule:nonzero;fill-opacity:0.301961}
   ]]>
  </style>
 </defs>
 <g id="Layer_x0020_1">
  <metadata id="CorelCorpID_0Corel-Layer"/>
  <g id="_1710232370512">
   <g>
    <g>
     <g>
      <polygon class="fil0" points="1795.98,6167.15 456.83,6167.15 456.83,3635.72 1795.98,3635.72 "/>
     </g>
    </g>
    <g>
     <g>
      <polygon class="fil1" points="1398.55,6167.15 59.4,6167.15 59.4,3635.72 1398.55,3635.72 "/>
     </g>
    </g>
    <g>
     <g>
      <g>
       <path class="fil0" d="M1299.98 4156.78l-1149.46 0 0 -401.27 1149.46 0 0 401.27zm-1135.34 -14.12l0 0 1121.22 0 0 -373.02 -1121.22 0 0 373.02z"/>
      </g>
     </g>
     <g>
      <g>
       <path class="fil2" d="M882.42 3842.53l-298.78 0c-37.95,0 -68.72,-30.77 -68.72,-68.72l0 -11.24 436.22 0 0 11.24c0,37.96 -30.77,68.72 -68.72,68.72z"/>
      </g>
     </g>
    </g>
    <g>
     <g>
      <g>
       <path class="fil0" d="M1299.98 4666.49l-1149.46 0 0 -401.27 1149.46 0 0 401.27zm-1135.34 -14.12l0 0 1121.22 0 0 -373.02 -1121.22 0 0 373.02z"/>
      </g>
     </g>
     <g>
      <g>
       <path class="fil2" d="M882.42 4352.25l-298.78 0c-37.95,0 -68.72,-30.77 -68.72,-68.72l0 -11.24 436.22 0 0 11.24c0,37.96 -30.77,68.73 -68.73,68.73z"/>
      </g>
     </g>
    </g>
    <g>
     <g>
      <g>
       <path class="fil0" d="M1299.98 5176.22l-1149.46 0 0 -401.27 1149.46 0 0 401.27zm-1135.34 -14.12l0 0 1121.22 0 0 -373.02 -1121.22 0 0 373.02z"/>
      </g>
     </g>
     <g>
      <g>
       <path class="fil2" d="M882.42 4861.97l-298.78 0c-37.95,0 -68.72,-30.77 -68.72,-68.72l0 -11.24 436.22 0 0 11.24c0,37.95 -30.77,68.72 -68.72,68.72z"/>
      </g>
     </g>
    </g>
    <g>
     <g>
      <g>
       <path class="fil0" d="M1299.98 5685.93l-1149.46 0 0 -401.27 1149.46 0 0 401.27zm-1135.34 -14.12l0 0 1121.22 0 0 -373.02 -1121.22 0 0 373.02z"/>
      </g>
     </g>
     <g>
      <g>
       <path class="fil2" d="M882.42 5371.68l-298.77 0c-37.96,0 -68.72,-30.77 -68.72,-68.72l0 -11.24 436.22 0 0 11.24c0,37.96 -30.77,68.72 -68.73,68.72z"/>
      </g>
     </g>
    </g>
    <g>
     <g>
      <polygon class="fil2" points="1454.57,3667.06 -0,3667.06 -0,3540.97 1454.57,3540.97 "/>
     </g>
    </g>
    <g>
     <g>
      <polygon class="fil0" points="1891.98,3667.06 1454.57,3667.06 1454.57,3540.97 1891.98,3540.97 "/>
     </g>
    </g>
    <g>
     <g>
      <polygon class="fil0" points="129.77,6296.45 59.4,6296.45 59.4,6167.15 129.77,6167.15 "/>
     </g>
    </g>
    <g>
     <g>
      <polygon class="fil0" points="564.6,6296.45 494.23,6296.45 494.23,6167.15 564.6,6167.15 "/>
     </g>
    </g>
    <g>
     <g>
      <polygon class="fil0" points="1358.85,6296.45 1288.48,6296.45 1288.48,6167.15 1358.85,6167.15 "/>
     </g>
    </g>
    <g>
     <g>
      <polygon class="fil0" points="1755.97,6296.45 1685.6,6296.45 1685.6,6167.15 1755.97,6167.15 "/>
     </g>
    </g>
   </g>
   <g>
    <g>
     <polygon class="fil0" points="1299.28,3204.34 1434.84,3551.12 1350.57,3550.73 1283.03,3337.62 "/>
    </g>
    <g>
     <g>
      <g>
       <polygon class="fil2" points="836.39,2883.92 789.8,3548.37 1270.86,3558.41 1324.99,2883.92 "/>
      </g>
      <g>
       <polygon class="fil3" points="884.52,2937.44 845.73,3490.49 1203.35,3507.24 1253.31,2934.16 "/>
      </g>
     </g>
     <g>
      <polygon class="fil0" points="963,3015.64 933.98,3404.4 1131.26,3404.4 1166.06,3015.64 "/>
     </g>
    </g>
   </g>
   <g>
    <g>
     <g>
      <g>
       <polygon class="fil2" points="5745.83,3531.83 3950.25,3531.83 3950.25,306.2 5745.83,306.2 "/>
      </g>
     </g>
    </g>
    <g>
     <g>
      <g>
       <polygon class="fil3" points="5655.59,3435.74 4021.99,3435.74 4021.99,399.74 5655.59,399.74 "/>
      </g>
     </g>
    </g>
    <g>
     <g>
      <g>
       <polygon class="fil0" points="5821.78,3560.91 5745.83,3531.83 5745.83,251.49 5821.78,251.49 "/>
      </g>
     </g>
    </g>
    <g>
     <g>
      <g>
       <polygon class="fil0" points="5691.06,1305.44 4021.99,1305.44 4021.99,1273.11 5691.06,1273.11 "/>
      </g>
     </g>
    </g>
    <g>
     <g>
      <g>
       <polygon class="fil0" points="5691.06,2028.43 4021.99,2028.43 4021.99,1996.1 5691.06,1996.1 "/>
      </g>
     </g>
    </g>
    <g>
     <g>
      <g>
       <polygon class="fil0" points="5691.06,2751.42 4021.99,2751.42 4021.99,2719.1 5691.06,2719.1 "/>
      </g>
     </g>
    </g>
    <g>
     <g>
      <g>
       <polygon class="fil0" points="4880.06,1289.27 4880.06,3521.83 4797.52,3521.83 4797.52,1289.27 "/>
      </g>
     </g>
    </g>
    <g>
     <g>
      <g>
       <polygon class="fil0" points="4373.94,1289.27 4336.55,1289.27 4336.55,399.74 4373.94,399.74 "/>
      </g>
     </g>
    </g>
    <g>
     <g>
      <g>
       <polygon class="fil0" points="4696.43,1289.27 4659.04,1289.27 4659.04,399.74 4696.43,399.74 "/>
      </g>
     </g>
    </g>
    <g>
     <g>
      <g>
       <polygon class="fil0" points="5018.91,1289.27 4981.52,1289.27 4981.52,399.74 5018.91,399.74 "/>
      </g>
     </g>
    </g>
    <g>
     <g>
      <g>
       <polygon class="fil0" points="5341.39,1289.27 5304,1289.27 5304,399.74 5341.39,399.74 "/>
      </g>
     </g>
    </g>
    <g>
     <g>
      <g>
       <polygon class="fil0" points="3950.25,3551.8 3874.3,3551.8 3874.3,251.49 3950.25,251.49 "/>
      </g>
     </g>
    </g>
    <g>
     <g>
      <g>
       <polygon class="fil0" points="5821.78,306.2 3874.3,306.2 3874.3,218.19 5821.78,218.19 "/>
      </g>
     </g>
    </g>
    <g>
     <g>
      <g>
       <polygon class="fil0" points="5873.19,3653.76 3820.42,3653.76 3820.42,3571.76 5873.19,3571.76 "/>
      </g>
     </g>
    </g>
    <g>
     <g>
      <g>
       <polygon class="fil0" points="5745.83,3531.83 5873.19,3571.76 3820.42,3571.76 3950.25,3531.83 "/>
      </g>
     </g>
    </g>
   </g>
   <g>
    <g>
     <g>
      <g>
       <g>
        <path class="fil0" d="M1172.18 417.67c31.78,-19.2 65.6,-33.76 100.48,-43.67l20.7 -99.46 168.04 -2.94 24.18 98.66c35.22,8.67 69.54,22.04 101.96,40.11l84.93 -55.67 120.91 116.74 -52.64 86.81c19.21,31.78 33.76,65.62 43.67,100.51l99.45 20.69 2.95 168.04 -98.67 24.19c-8.68,35.21 -22.04,69.52 -40.11,101.95l55.66 84.94 -116.73 120.91 -86.83 -52.65c-31.78,19.2 -65.61,33.76 -100.5,43.67l-20.7 99.46 -168.04 2.95 -24.19 -98.67c-35.21,-8.68 -69.52,-22.04 -101.95,-40.11l-84.93 55.67 -120.91 -116.74 52.64 -86.82c-19.2,-31.78 -33.77,-65.6 -43.67,-100.5l-99.46 -20.7 -2.95 -168.04 98.67 -24.19c8.68,-35.21 22.05,-69.52 40.11,-101.95l-55.66 -84.93 116.73 -120.91 86.84 52.65zm89.58 223.86l0 0c-69.16,71.64 -67.16,185.78 4.48,254.94 71.64,69.16 185.78,67.15 254.93,-4.48 69.16,-71.64 67.16,-185.78 -4.48,-254.94 -71.64,-69.16 -185.77,-67.15 -254.93,4.48z"/>
       </g>
      </g>
     </g>
     <g>
      <g>
       <g>
        <g>
         <path class="fil0" d="M1261.76 641.53c0,0 9.43,-13.29 33.57,-29.46 23.69,-15.78 65.11,-33.35 117.63,-27.81 25.85,2.91 54.15,11.34 79.94,28.4 25.51,17.05 49.6,41.33 64.65,72.84 7.93,15.48 13.42,32.66 16.4,50.61 3.24,17.91 3.7,36.75 1.01,55.5 -4.56,37.67 -22.37,74.78 -50.05,103.94 -28.18,28.7 -64.65,47.81 -102.14,53.7 -18.65,3.36 -37.5,3.56 -55.52,0.94 -18.04,-2.35 -35.41,-7.24 -51.16,-14.61 -32.02,-13.93 -57.13,-37.16 -75.07,-62.06 -17.96,-25.17 -27.37,-53.16 -31.19,-78.9 -7.38,-52.29 8.72,-94.29 23.67,-118.52 15.31,-24.69 28.26,-34.58 28.26,-34.58 0.98,0.83 -10.88,11.83 -24.77,36.58 -13.58,24.32 -27.95,65.35 -19.93,115.42 4.12,24.65 13.52,51.25 30.95,75.04 17.41,23.51 41.51,45.38 71.97,58.32 14.98,6.89 31.46,11.4 48.56,13.53 17.07,2.38 34.91,2.11 52.53,-1.14 35.44,-5.7 69.76,-23.8 96.41,-50.9 26.13,-27.58 43.01,-62.51 47.45,-98.12 2.63,-17.71 2.27,-35.55 -0.72,-52.52 -2.72,-17 -7.8,-33.33 -15.22,-48.05 -14,-29.98 -36.7,-53.3 -60.81,-69.87 -24.38,-16.58 -51.29,-25.04 -76.07,-28.3 -50.31,-6.26 -90.82,9.54 -114.65,23.97 -24.26,14.75 -34.84,27 -35.7,26.04z"/>
        </g>
       </g>
      </g>
     </g>
     <g>
      <g>
       <g>
        <g>
         <path class="fil0" d="M1172.18 417.67c0,0.14 -1.88,-0.85 -5.6,-2.96 -4.09,-2.36 -9.56,-5.52 -16.65,-9.63 -15.18,-8.96 -37.05,-21.89 -65.44,-38.65l2.04 -0.26c-29.71,31.13 -68.77,72.07 -116.03,121.58l0.31 -3.26c16.96,25.67 35.83,54.19 56,84.7l1.01 1.52 -0.89 1.62c-16.51,29.89 -30.37,63.93 -39.46,101.28l-0.48 1.99 -2 0.5c-30.73,7.63 -64,15.88 -98.6,24.47l2.81 -3.63c1.05,52.91 2.17,109.06 3.33,168.02l-3.23 -3.91c30.8,6.35 64.72,13.33 99.48,20.5l2.53 0.52 0.71 2.49c9.24,32.44 23.67,66.93 43.37,99.35l1.4 2.3 -1.4 2.32c-16.28,26.94 -34.23,56.64 -52.52,86.9l-0.74 -5.7c38.02,36.62 79.03,76.11 121.05,116.59l-5.98 -0.56c26.44,-17.37 55.46,-36.43 84.87,-55.76l2.49 -1.63 2.59 1.44c29.65,16.52 64.28,30.63 100.76,39.55l2.94 0.72 0.72 2.94c7.59,30.9 15.89,64.61 24.25,98.65l-5.01 -3.85c53.2,-0.96 110.23,-1.98 168.04,-3.02l-4.93 4.09c6.53,-31.41 13.57,-65.31 20.67,-99.45l0.64 -3.07 3 -0.85c33.09,-9.36 67.37,-23.83 99.14,-43.07l0.09 -0.05 2.71 -1.61 2.65 1.61c29.15,17.68 58.12,35.24 86.82,52.65l-6.39 0.83c39.46,-40.85 78.39,-81.15 116.76,-120.88l-0.6 6.36c-18.72,-28.6 -37.26,-56.92 -55.62,-84.95l-1.69 -2.57 1.5 -2.68c17.85,-31.97 31.11,-65.98 39.68,-100.68l0.74 -2.95 2.94 -0.72c33.37,-8.16 66.23,-16.19 98.68,-24.11l-3.75 4.87c-0.95,-57.36 -1.88,-113.4 -2.78,-168.03l3.78 4.57c-33.73,-7.06 -66.87,-14 -99.42,-20.82l-2.75 -0.58 -0.76 -2.69c-10.07,-35.63 -24.76,-69.09 -43.04,-99.45l-1.4 -2.33 1.4 -2.31c18.1,-29.74 35.65,-58.57 52.78,-86.72l0.69 5.31c-42.44,-41.15 -82.52,-80 -120.67,-116.98l4.92 0.46c-29.92,19.5 -57.99,37.8 -85.06,55.45l-1.89 1.24 -1.95 -1.09c-33.85,-18.93 -67.78,-31.74 -100.97,-40.06l-2.01 -0.5 -0.48 -1.99c-8.67,-35.88 -16.48,-68.2 -23.86,-98.74l3.02 2.33c-65.11,0.85 -120.57,1.58 -168.06,2.2l2.22 -1.84c-8.52,39.67 -15.51,72.22 -21.33,99.33l-0.22 0.99 -0.96 0.27c-35.56,9.93 -60.57,21.54 -76.84,29.56 -7.77,4.06 -13.72,7.17 -18.07,9.44 -4.09,2.24 -6.03,3.21 -6.03,3.07 0.01,-0.13 1.92,-1.45 5.6,-3.81 3.84,-2.36 9.66,-5.91 17.71,-10.21 16.08,-8.56 41.01,-20.74 76.72,-31.24l-1.17 1.26c5.48,-27.18 12.04,-59.81 20.05,-99.59l0.37 -1.8 1.87 -0.04c47.48,-1.04 102.93,-2.26 168.02,-3.69l2.43 -0.05 0.6 2.38c7.58,30.48 15.6,62.76 24.51,98.57l-2.48 -2.49c33.79,8.25 68.39,21.07 102.95,40.17l-3.84 0.14c26.99,-17.79 54.97,-36.22 84.79,-55.88l2.63 -1.73 2.29 2.2c38.3,36.82 78.52,75.51 121.14,116.49l2.47 2.38 -1.78 2.94c-17.04,28.21 -34.49,57.11 -52.49,86.9l0.01 -4.62c18.77,30.96 33.9,65.14 44.29,101.55l-3.5 -3.27c32.57,6.74 65.72,13.59 99.47,20.58l3.72 0.77 0.07 3.81c1.02,54.63 2.06,110.66 3.13,168.03l0.07 3.93 -3.83 0.94c-32.44,7.98 -65.29,16.06 -98.64,24.26l3.66 -3.66c-8.73,35.57 -22.28,70.43 -40.54,103.22l-0.19 -5.24c18.39,28.02 36.95,56.32 55.7,84.9l2.24 3.42 -2.83 2.94c-38.35,39.74 -77.26,80.07 -116.7,120.94l-2.87 2.96 -3.53 -2.14c-28.7,-17.4 -57.68,-34.96 -86.83,-52.63l5.35 0 -0.09 0.05c-32.59,19.74 -67.74,34.57 -101.67,44.15l3.64 -3.91c-7.11,34.14 -14.17,68.04 -20.72,99.45l-0.84 4.02 -4.1 0.07c-57.81,0.99 -114.84,1.96 -168.04,2.87l-4.04 0.07 -0.96 -3.93c-8.33,-34.06 -16.56,-67.77 -24.12,-98.68l3.66 3.66c-37.37,-9.19 -72.83,-23.69 -103.14,-40.67l5.07 -0.19c-29.45,19.26 -58.52,38.28 -84.98,55.59l-3.22 2.11 -2.76 -2.67c-41.93,-40.58 -82.83,-80.17 -120.76,-116.89l-2.65 -2.56 1.91 -3.15c18.37,-30.2 36.41,-59.85 52.77,-86.73l-0 4.61c-20.04,-33.2 -34.66,-68.49 -43.96,-101.63l3.24 3.01c-34.75,-7.3 -68.64,-14.42 -99.42,-20.89l-3.19 -0.67 -0.06 -3.24c-0.9,-58.96 -1.76,-115.12 -2.56,-168.04l-0.04 -2.95 2.85 -0.69c34.65,-8.39 67.96,-16.46 98.74,-23.91l-2.48 2.48c9.47,-37.92 23.79,-72.4 40.75,-102.61l0.11 3.13c-19.93,-30.68 -38.56,-59.35 -55.32,-85.15l-1.15 -1.77 1.46 -1.49c47.81,-48.96 87.35,-89.44 117.43,-120.23l0.93 -0.96 1.11 0.69c27.75,17.26 49.13,30.57 63.96,39.8 7.01,4.45 12.41,7.89 16.45,10.44 3.69,2.39 5.57,3.67 5.57,3.81z"/>
        </g>
       </g>
      </g>
     </g>
    </g>
    <g>
     <g>
      <g>
       <g>
        <path class="fil1" d="M2206.43 89.3c19.02,-11.49 39.26,-20.21 60.15,-26.14l12.39 -59.54 100.59 -1.76 14.48 59.06c21.08,5.2 41.62,13.19 61.04,24.02l50.84 -33.33 72.37 69.88 -31.51 51.97c11.5,19.03 20.21,39.28 26.14,60.17l59.53 12.39 1.77 100.59 -59.06 14.48c-5.19,21.07 -13.19,41.61 -24,61.03l33.31 50.84 -69.87 72.38 -51.98 -31.52c-19.02,11.5 -39.27,20.2 -60.16,26.14l-12.39 59.54 -100.59 1.76 -14.48 -59.06c-21.07,-5.2 -41.61,-13.2 -61.03,-24.02l-50.84 33.33 -72.38 -69.88 31.51 -51.97c-11.5,-19.02 -20.21,-39.27 -26.14,-60.15l-59.54 -12.39 -1.76 -100.59 59.06 -14.48c5.19,-21.07 13.2,-41.61 24.01,-61.03l-33.32 -50.84 69.87 -72.38 51.98 31.52zm53.62 134l0 0c-41.41,42.89 -40.2,111.21 2.68,152.61 42.88,41.4 111.2,40.19 152.61,-2.69 41.39,-42.88 40.2,-111.2 -2.69,-152.6 -42.88,-41.4 -111.2,-40.2 -152.6,2.68z"/>
       </g>
      </g>
     </g>
     <g>
      <g>
       <g>
        <g>
         <path class="fil1" d="M2260.05 223.3c0,0 5.64,-7.95 20.09,-17.63 14.18,-9.45 38.97,-19.96 70.41,-16.65 15.48,1.74 32.41,6.78 47.85,17 15.27,10.21 29.69,24.74 38.7,43.6 4.74,9.26 8.04,19.55 9.82,30.29 1.94,10.72 2.22,22 0.61,33.22 -2.73,22.55 -13.39,44.76 -29.96,62.22 -16.87,17.19 -38.7,28.62 -61.14,32.15 -11.16,2.01 -22.44,2.13 -33.23,0.57 -10.8,-1.41 -21.2,-4.33 -30.62,-8.75 -19.17,-8.34 -34.2,-22.24 -44.94,-37.15 -10.75,-15.07 -16.39,-31.82 -18.67,-47.23 -4.42,-31.3 5.22,-56.44 14.17,-70.95 9.17,-14.78 16.92,-20.7 16.92,-20.7 0.58,0.5 -6.52,7.09 -14.83,21.9 -8.13,14.56 -16.73,39.12 -11.93,69.09 2.46,14.76 8.09,30.68 18.53,44.92 10.42,14.07 24.85,27.17 43.08,34.91 8.96,4.12 18.83,6.83 29.07,8.1 10.22,1.43 20.9,1.26 31.44,-0.68 21.22,-3.41 41.76,-14.25 57.71,-30.47 15.64,-16.51 25.74,-37.42 28.4,-58.74 1.57,-10.6 1.36,-21.28 -0.43,-31.44 -1.63,-10.18 -4.67,-19.95 -9.11,-28.76 -8.38,-17.95 -21.97,-31.91 -36.4,-41.83 -14.59,-9.92 -30.7,-14.98 -45.54,-16.94 -30.12,-3.74 -54.37,5.71 -68.63,14.35 -14.52,8.83 -20.85,16.16 -21.37,15.59z"/>
        </g>
       </g>
      </g>
     </g>
     <g>
      <g>
       <g>
        <g>
         <path class="fil1" d="M2206.43 89.3c0,0.09 -1.13,-0.5 -3.35,-1.77 -2.44,-1.41 -5.72,-3.31 -9.97,-5.76 -9.09,-5.37 -22.17,-13.1 -39.17,-23.14l1.22 -0.16c-17.78,18.63 -41.17,43.14 -69.46,72.78l0.19 -1.95c10.16,15.37 21.45,32.44 33.53,50.7l0.6 0.91 -0.54 0.97c-9.88,17.89 -18.18,38.27 -23.62,60.63l-0.29 1.19 -1.2 0.3c-18.4,4.57 -38.31,9.5 -59.02,14.65l1.68 -2.17c0.63,31.67 1.3,65.28 2,100.57l-1.93 -2.34c18.43,3.8 38.74,7.98 59.55,12.28l1.52 0.31 0.42 1.49c5.53,19.42 14.17,40.07 25.96,59.48l0.84 1.38 -0.84 1.39c-9.74,16.12 -20.49,33.9 -31.44,52.02l-0.44 -3.41c22.76,21.92 47.3,45.56 72.46,69.79l-3.58 -0.33c15.82,-10.39 33.2,-21.81 50.81,-33.37l1.49 -0.98 1.56 0.87c17.74,9.89 38.47,18.33 60.31,23.68l1.76 0.43 0.44 1.76c4.54,18.5 9.51,38.67 14.52,59.06l-3 -2.31c31.85,-0.57 65.98,-1.19 100.59,-1.81l-2.95 2.45c3.91,-18.81 8.12,-39.1 12.38,-59.54l0.38 -1.83 1.8 -0.51c19.81,-5.6 40.33,-14.26 59.35,-25.78l0.05 -0.03 1.62 -0.96 1.58 0.96c17.45,10.58 34.8,21.1 51.97,31.52l-3.82 0.49c23.62,-24.45 46.93,-48.58 69.89,-72.36l-0.36 3.81c-11.21,-17.12 -22.31,-34.07 -33.29,-50.85l-1.01 -1.54 0.89 -1.6c10.69,-19.14 18.62,-39.5 23.75,-60.27l0.44 -1.76 1.76 -0.43c19.98,-4.88 39.65,-9.69 59.07,-14.43l-2.25 2.91c-0.57,-34.34 -1.12,-67.88 -1.67,-100.59l2.26 2.73c-20.19,-4.22 -40.03,-8.38 -59.51,-12.46l-1.65 -0.35 -0.45 -1.61c-6.02,-21.33 -14.82,-41.36 -25.76,-59.53l-0.84 -1.39 0.84 -1.38c10.83,-17.8 21.34,-35.06 31.59,-51.92l0.41 3.19c-25.41,-24.63 -49.39,-47.89 -72.23,-70.02l2.94 0.28c-17.91,11.67 -34.71,22.63 -50.92,33.19l-1.13 0.74 -1.17 -0.65c-20.26,-11.34 -40.57,-19 -60.44,-23.98l-1.2 -0.3 -0.29 -1.19c-5.19,-21.48 -9.87,-40.83 -14.28,-59.11l1.81 1.39c-38.97,0.51 -72.17,0.94 -100.59,1.32l1.33 -1.11c-5.1,23.75 -9.28,43.23 -12.77,59.46l-0.13 0.59 -0.57 0.16c-21.29,5.94 -36.26,12.89 -46,17.7 -4.65,2.43 -8.21,4.29 -10.82,5.65 -2.45,1.34 -3.61,1.92 -3.61,1.83 0,-0.08 1.15,-0.87 3.35,-2.28 2.3,-1.42 5.78,-3.54 10.6,-6.11 9.63,-5.12 24.55,-12.41 45.92,-18.7l-0.7 0.75c3.28,-16.27 7.21,-35.8 12,-59.61l0.22 -1.08 1.12 -0.02c28.42,-0.62 61.61,-1.35 100.58,-2.2l1.46 -0.03 0.36 1.43c4.54,18.24 9.33,37.56 14.67,59.01l-1.48 -1.49c20.22,4.94 40.94,12.61 61.63,24.04l-2.3 0.09c16.16,-10.65 32.91,-21.68 50.76,-33.45l1.57 -1.04 1.37 1.32c22.93,22.04 47,45.2 72.51,69.73l1.48 1.42 -1.07 1.76c-10.2,16.89 -20.65,34.19 -31.42,52.02l0 -2.77c11.24,18.54 20.29,39 26.51,60.79l-2.1 -1.96c19.5,4.04 39.34,8.14 59.55,12.31l2.22 0.46 0.04 2.28c0.61,32.7 1.23,66.24 1.87,100.58l0.04 2.35 -2.29 0.56c-19.42,4.78 -39.08,9.61 -59.05,14.52l2.19 -2.19c-5.23,21.29 -13.33,42.16 -24.26,61.79l-0.11 -3.14c11,16.77 22.11,33.72 33.34,50.82l1.34 2.04 -1.7 1.77c-22.96,23.79 -46.25,47.93 -69.85,72.39l-1.71 1.78 -2.11 -1.28c-17.18,-10.41 -34.53,-20.93 -51.98,-31.5l3.2 0 -0.06 0.03c-19.51,11.82 -40.55,20.69 -60.86,26.43l2.18 -2.34c-4.26,20.44 -8.49,40.73 -12.4,59.53l-0.5 2.41 -2.45 0.04c-34.61,0.59 -68.74,1.18 -100.59,1.72l-2.42 0.04 -0.57 -2.35c-4.98,-20.38 -9.92,-40.57 -14.44,-59.07l2.19 2.19c-22.37,-5.5 -43.59,-14.19 -61.74,-24.35l3.04 -0.11c-17.63,11.53 -35.03,22.91 -50.87,33.27l-1.93 1.26 -1.65 -1.6c-25.1,-24.29 -49.59,-47.99 -72.29,-69.97l-1.59 -1.53 1.15 -1.88c11,-18.08 21.8,-35.83 31.59,-51.92l0 2.76c-12,-19.87 -20.75,-41 -26.31,-60.84l1.94 1.8c-20.8,-4.37 -41.09,-8.64 -59.51,-12.51l-1.91 -0.41 -0.03 -1.94c-0.54,-35.3 -1.06,-68.91 -1.54,-100.59l-0.03 -1.77 1.71 -0.41c20.74,-5.02 40.68,-9.85 59.1,-14.31l-1.48 1.49c5.67,-22.7 14.24,-43.34 24.4,-61.43l0.06 1.88c-11.93,-18.36 -23.08,-35.53 -33.11,-50.97l-0.69 -1.06 0.87 -0.89c28.62,-29.31 52.29,-53.54 70.3,-71.97l0.56 -0.57 0.66 0.41c16.61,10.34 29.41,18.3 38.29,23.83 4.19,2.66 7.43,4.72 9.85,6.25 2.21,1.43 3.33,2.2 3.33,2.28z"/>
        </g>
       </g>
      </g>
     </g>
    </g>
   </g>
   <g>
    <g>
     <g>
      <polygon class="fil0" points="1273.61,2751.09 136.6,2751.09 136.6,1565.85 1273.61,1565.85 "/>
     </g>
    </g>
    <g>
     <g>
      <polygon class="fil2" points="1196.61,2751.09 59.6,2751.09 59.6,1565.85 1196.61,1565.85 "/>
     </g>
    </g>
    <g>
     <g>
      <polygon class="fil3" points="1043.76,2591.76 212.44,2591.76 212.44,1725.18 1043.76,1725.18 "/>
     </g>
    </g>
    <g>
     <g>
      <g>
       <path class="fil0" d="M212.44 2597.52c0.55,0.66 -7.43,9.61 -20.77,23.55 -13.35,13.94 -32.05,32.85 -52.97,53.46 -20.92,20.61 -40.1,39.01 -54.21,52.12 -14.1,13.1 -23.14,20.91 -23.75,20.29 -0.61,-0.61 7.33,-9.53 20.68,-23.46 13.34,-13.94 32.09,-32.89 53.06,-53.55 20.97,-20.65 40.19,-39.09 54.29,-52.19 14.11,-13.11 23.11,-20.87 23.66,-20.21z"/>
      </g>
     </g>
    </g>
    <g>
     <g>
      <g>
       <path class="fil0" d="M1043.76 2595.39c0.66,-0.56 9.62,7.43 23.55,20.77 13.94,13.35 32.85,32.05 53.46,52.96 20.61,20.93 39.01,40.1 52.11,54.21 13.1,14.11 20.91,23.14 20.3,23.75 -0.61,0.61 -9.53,-7.33 -23.47,-20.68 -13.94,-13.34 -32.89,-32.09 -53.55,-53.07 -20.65,-20.96 -39.09,-40.18 -52.19,-54.29 -13.1,-14.11 -20.87,-23.11 -20.21,-23.66z"/>
      </g>
     </g>
    </g>
    <g>
     <g>
      <g>
       <path class="fil0" d="M1041.49 1727.49c-0.56,-0.66 7.43,-9.62 20.78,-23.56 13.34,-13.94 32.05,-32.85 52.96,-53.46 20.93,-20.61 40.1,-39.01 54.21,-52.12 14.1,-13.1 23.14,-20.91 23.75,-20.29 0.61,0.61 -7.33,9.53 -20.68,23.47 -13.34,13.93 -32.09,32.89 -53.06,53.55 -20.97,20.65 -40.19,39.09 -54.29,52.19 -14.11,13.11 -23.11,20.87 -23.66,20.22z"/>
      </g>
     </g>
    </g>
    <g>
     <g>
      <g>
       <path class="fil0" d="M210.17 1729.62c-0.66,0.56 -9.62,-7.43 -23.56,-20.78 -13.93,-13.34 -32.85,-32.05 -53.46,-52.96 -20.61,-20.93 -39.01,-40.1 -52.11,-54.21 -13.1,-14.11 -20.91,-23.14 -20.3,-23.75 0.61,-0.61 9.53,7.33 23.47,20.68 13.94,13.34 32.89,32.09 53.55,53.06 20.65,20.97 39.09,40.19 52.19,54.29 13.1,14.11 20.87,23.11 20.21,23.66z"/>
      </g>
     </g>
    </g>
    <g>
     <g>
      <g>
       <path class="fil0" d="M1041.49 2591.76c0,0 -0.1,-1.46 -0.15,-4.18 -0.04,-2.89 -0.09,-6.88 -0.16,-12.07 -0.07,-10.78 -0.18,-26.41 -0.31,-46.74 -0.17,-40.97 -0.41,-100.67 -0.72,-176.56 -0.33,-151.74 -0.81,-368.03 -1.38,-627.04l2.72 2.72c-241.99,0.12 -526.21,0.26 -828.96,0.4l-0.08 0 3.12 -3.12c-0.16,318.07 -0.31,615.65 -0.44,866.58l-2.68 -2.68c248.54,0.57 455.45,1.04 600.43,1.37 72.5,0.3 129.47,0.54 168.56,0.7 19.38,0.14 34.28,0.24 44.57,0.31 4.94,0.06 8.74,0.11 11.5,0.15 2.6,0.05 3.99,0.15 3.99,0.15 0,0 -1.19,0.1 -3.69,0.15 -2.69,0.04 -6.39,0.09 -11.21,0.15 -10.17,0.07 -24.89,0.17 -44.05,0.31 -38.94,0.17 -95.72,0.4 -167.96,0.7 -145.39,0.33 -352.89,0.8 -602.14,1.37l-2.68 0.01 0 -2.69c-0.13,-250.93 -0.28,-548.5 -0.44,-866.58l-0 -3.12 3.13 0 0.08 0c302.76,0.15 586.98,0.28 828.96,0.4l2.73 0 -0.01 2.72c-0.57,259.72 -1.05,476.61 -1.38,628.78 -0.31,75.62 -0.55,135.12 -0.71,175.94 -0.14,20.09 -0.24,35.55 -0.31,46.21 -0.07,5.06 -0.12,8.95 -0.15,11.78 -0.05,2.62 -0.16,3.87 -0.16,3.87z"/>
      </g>
     </g>
    </g>
    <g>
     <g>
      <g>
       <path class="fil2" d="M431.85 2087.21c0,0 -17.8,214.55 214.56,214.55 0,-114.5 -94.46,-204.88 -214.56,-214.55z"/>
      </g>
     </g>
     <g>
      <g>
       <path class="fil2" d="M857.02 2087.36c0,0 -214.56,-17.8 -214.56,214.56 114.5,0 204.89,-94.46 214.56,-214.56z"/>
      </g>
     </g>
     <g>
      <g>
       <path class="fil0" d="M636.1 1969.94c0,0 -175.28,157.35 9.59,331.83 85.98,-91.1 78.7,-233.95 -9.59,-331.83z"/>
      </g>
     </g>
    </g>
   </g>
   <g>
    <path class="fil1" d="M5400.72 822.29l-31.93 -52.61c-269.11,-443.46 -755.65,-710.78 -1268.63,-678.35 -65.94,4.17 -131.6,13.1 -196.38,26.96 -466.41,99.83 -872.23,452.54 -1040.44,904.24 -98.93,265.66 -126.57,571.53 -314.31,782.39 -244.33,274.43 -659.15,283.05 -1023.85,271.68 -364.7,-11.37 -779.79,-1.67 -1022.93,273.84 -152.28,172.55 -200.67,417.92 -188.39,649 32.51,611.79 458.81,1158.82 1000.96,1430.72 542.15,271.91 1180.48,296.26 1773.82,176.65 831.22,-167.56 1621.7,-627.71 2096.84,-1338.44 475.14,-710.71 595.39,-1679 215.23,-2446.09z"/>
   </g>
   <g>
    <g>
     <g>
      <g>
       <g>
        <path class="fil4" d="M4854.36 5451.13c-236.68,-127.94 -502.72,-360.78 -606.22,-625.27 255.88,131.97 471.5,354.37 606.22,625.27z"/>
       </g>
      </g>
      <g>
       <g>
        <path class="fil4" d="M4838.92 5054.4c-236.69,-127.94 -502.72,-360.78 -606.22,-625.27 255.88,131.97 471.5,354.37 606.22,625.27z"/>
       </g>
      </g>
      <g>
       <g>
        <path class="fil4" d="M4803.56 4666.6c-236.68,-127.94 -502.72,-360.78 -606.22,-625.27 255.88,131.97 471.5,354.37 606.22,625.27z"/>
       </g>
      </g>
      <g>
       <g>
        <path class="fil4" d="M4751.8 4259.23c-219.58,-159.99 -455.86,-428.13 -527.21,-704.9 238.14,166.68 425.66,417.4 527.21,704.9z"/>
       </g>
      </g>
      <g>
       <g>
        <path class="fil4" d="M4685.05 3944.95c-148.58,-237.72 -275.43,-582.53 -246.37,-868.22 163.49,251.47 251.12,560.29 246.37,868.22z"/>
       </g>
      </g>
      <g>
       <g>
        <path class="fil4" d="M4718.73 4094.54c62.54,-296.53 214.75,-662.46 433.94,-868.57 -61.78,318.25 -216.13,627.19 -433.94,868.57z"/>
       </g>
      </g>
      <g>
       <g>
        <path class="fil4" d="M4767.47 4429.98c89.53,-303.39 278.16,-671.26 523.42,-866.83 -90.52,326.07 -276.69,634.39 -523.42,866.83z"/>
       </g>
      </g>
      <g>
       <g>
        <path class="fil4" d="M4821.28 4838.51c89.53,-303.39 278.16,-671.26 523.42,-866.83 -90.52,326.08 -276.69,634.39 -523.42,866.83z"/>
       </g>
      </g>
      <g>
       <g>
        <path class="fil4" d="M4848.38 5336.39c89.53,-303.39 278.16,-671.26 523.42,-866.83 -90.52,326.08 -276.69,634.39 -523.42,866.83z"/>
       </g>
      </g>
      <g>
       <g>
        <g>
         <path class="fil5" d="M4679.1 3885.11c0.17,-0.03 0.66,1.59 1.48,4.8 0.89,3.76 2,8.46 3.37,14.28 2.91,13.32 6.94,31.74 12.04,55.09 10.44,47.85 24.1,117.39 39.63,203.57 15.71,86.15 32.18,189.14 48.4,303.79 15.71,114.72 30.83,241.15 43.22,374.21 12.07,133.13 20.21,260.24 25.67,375.92 5,115.7 7.52,219.98 7.82,307.54 0.44,87.57 -0.28,158.43 -1.8,207.37 -0.75,23.89 -1.34,42.72 -1.77,56.35 -0.29,5.97 -0.52,10.79 -0.7,14.65 -0.21,3.3 -0.41,4.98 -0.57,4.98 -0.17,0 -0.31,-1.7 -0.42,-5 -0.07,-3.87 -0.15,-8.69 -0.26,-14.67 -0.01,-13.63 -0.03,-32.47 -0.05,-56.36 0.36,-48.94 0.05,-119.76 -1.28,-207.25 -1.18,-87.49 -4.41,-191.64 -9.89,-307.2 -5.94,-115.54 -14.34,-242.47 -26.4,-375.45 -12.38,-132.91 -27.21,-259.22 -42.43,-373.89 -15.71,-114.59 -31.46,-217.59 -46.3,-303.82 -14.66,-86.26 -27.29,-155.95 -36.59,-204 -4.35,-23.5 -7.77,-42.03 -10.25,-55.43 -0.99,-5.9 -1.79,-10.65 -2.43,-14.47 -0.5,-3.27 -0.67,-4.96 -0.51,-5z"/>
        </g>
       </g>
      </g>
      <g>
       <g>
        <path class="fil6" d="M4854.36 5451.13c-236.68,-127.94 -502.72,-360.78 -606.22,-625.27 255.88,131.97 471.5,354.37 606.22,625.27z"/>
       </g>
      </g>
      <g>
       <g>
        <path class="fil6" d="M4838.92 5054.4c-236.69,-127.94 -502.72,-360.78 -606.22,-625.27 255.88,131.97 471.5,354.37 606.22,625.27z"/>
       </g>
      </g>
      <g>
       <g>
        <path class="fil6" d="M4803.56 4666.6c-236.68,-127.94 -502.72,-360.78 -606.22,-625.27 255.88,131.97 471.5,354.37 606.22,625.27z"/>
       </g>
      </g>
      <g>
       <g>
        <path class="fil6" d="M4751.8 4259.23c-219.58,-159.99 -455.86,-428.13 -527.21,-704.9 238.14,166.68 425.66,417.4 527.21,704.9z"/>
       </g>
      </g>
      <g>
       <g>
        <path class="fil6" d="M4685.05 3944.95c-148.58,-237.72 -275.43,-582.53 -246.37,-868.22 163.49,251.47 251.12,560.29 246.37,868.22z"/>
       </g>
      </g>
      <g>
       <g>
        <path class="fil6" d="M4718.73 4094.54c62.54,-296.53 214.75,-662.46 433.94,-868.57 -61.78,318.25 -216.13,627.19 -433.94,868.57z"/>
       </g>
      </g>
      <g>
       <g>
        <path class="fil6" d="M4767.47 4429.98c89.53,-303.39 278.16,-671.26 523.42,-866.83 -90.52,326.07 -276.69,634.39 -523.42,866.83z"/>
       </g>
      </g>
      <g>
       <g>
        <path class="fil6" d="M4821.28 4838.51c89.53,-303.39 278.16,-671.26 523.42,-866.83 -90.52,326.08 -276.69,634.39 -523.42,866.83z"/>
       </g>
      </g>
      <g>
       <g>
        <path class="fil6" d="M4848.38 5336.39c89.53,-303.39 278.16,-671.26 523.42,-866.83 -90.52,326.08 -276.69,634.39 -523.42,866.83z"/>
       </g>
      </g>
     </g>
     <g>
      <g>
       <g>
        <path class="fil4" d="M4914.19 5531.27c-143.99,-190.16 -278.15,-471.54 -276.27,-713.11 157.64,200.76 255.91,454.41 276.27,713.11z"/>
       </g>
      </g>
      <g>
       <g>
        <path class="fil4" d="M5025.56 5223.84c-143.99,-190.16 -278.15,-471.54 -276.27,-713.11 157.64,200.76 255.9,454.41 276.27,713.11z"/>
       </g>
      </g>
      <g>
       <g>
        <path class="fil4" d="M5118.69 4915.36c-143.99,-190.16 -278.15,-471.54 -276.27,-713.11 157.64,200.76 255.91,454.41 276.27,713.11z"/>
       </g>
      </g>
      <g>
       <g>
        <path class="fil4" d="M5205.17 4585.58c-120.74,-207.79 -220.82,-504.29 -190.15,-742.56 133.07,220.16 200.71,484.28 190.15,742.56z"/>
       </g>
      </g>
      <g>
       <g>
        <path class="fil4" d="M5251.08 4320.63c-41.44,-238.95 -32.71,-550.7 78.69,-756.31 48.74,255.25 20.75,524.26 -78.69,756.31z"/>
       </g>
      </g>
      <g>
       <g>
        <path class="fil4" d="M5230.72 4447.49c140.77,-200.68 372.74,-418.87 607.02,-489.33 -146.93,217.48 -362.83,391.53 -607.02,489.33z"/>
       </g>
      </g>
      <g>
       <g>
        <path class="fil4" d="M5164.26 4721.45c163.85,-195.29 424.71,-400.63 675.96,-452.85 -171.68,212.14 -412.11,373.21 -675.96,452.85z"/>
       </g>
      </g>
      <g>
       <g>
        <path class="fil4" d="M5079 5052.91c163.85,-195.29 424.71,-400.63 675.96,-452.85 -171.68,212.14 -412.11,373.21 -675.96,452.85z"/>
       </g>
      </g>
      <g>
       <g>
        <path class="fil4" d="M4945.22 5441.76c163.85,-195.29 424.71,-400.63 675.95,-452.85 -171.67,212.13 -412.1,373.21 -675.95,452.85z"/>
       </g>
      </g>
      <g>
       <g>
        <g>
         <path class="fil5" d="M5265.07 4272.84c0.15,0.03 0.05,1.43 -0.29,4.15 -0.47,3.24 -1.05,7.19 -1.76,12.01 -1.86,11.28 -4.4,26.65 -7.61,46.05 -6.64,39.99 -17.51,97.64 -32.05,168.64 -29.06,142.01 -75.2,337.11 -138.82,549.03 -31.98,105.93 -65.18,205.99 -97.02,296.42 -32.31,90.25 -62.82,171.02 -90.1,238.18 -27.08,67.23 -49.93,121.26 -66.53,158.24 -8.07,17.94 -14.46,32.14 -19.16,42.56 -2.08,4.41 -3.79,8.02 -5.19,10.98 -1.21,2.45 -1.91,3.68 -2.05,3.61 -0.14,-0.06 0.27,-1.41 1.21,-3.98 1.17,-3.06 2.61,-6.78 4.36,-11.33 4.31,-10.58 10.18,-25 17.59,-43.21 15.59,-37.38 37.53,-91.74 63.83,-159.21 26.5,-67.39 56.35,-148.3 88.19,-238.59 31.36,-90.46 64.28,-190.47 96.22,-296.26 63.53,-211.63 110.59,-406.2 141.22,-547.74 15.33,-70.78 27.15,-128.19 34.84,-167.96 3.91,-19.27 7,-34.54 9.27,-45.73 1.06,-4.76 1.93,-8.66 2.64,-11.85 0.64,-2.66 1.05,-4.01 1.2,-3.98z"/>
        </g>
       </g>
      </g>
     </g>
    </g>
    <g>
     <g>
      <polygon class="fil7" points="5140.02,6305.6 4633.84,6305.6 4539.47,5608.02 5237.06,5608.02 "/>
     </g>
    </g>
    <g>
     <polygon class="fil7" points="5299.76,5709.35 4476.77,5709.35 4476.77,5600.93 5299.76,5600.93 "/>
    </g>
    <g>
     <g>
      <path class="fil5" d="M5299.76 5711.25c0,2 -182.14,3.62 -406.77,3.62 -224.7,0 -406.8,-1.62 -406.8,-3.62 0,-2 182.1,-3.61 406.8,-3.61 224.63,0 406.77,1.62 406.77,3.61z"/>
     </g>
    </g>
   </g>
   <g>
    <g>
     <g>
      <g>
       <path class="fil7" d="M4141.55 6296.45l-2221.48 0c-194.41,0 -352.02,-157.6 -352.02,-352.02l0 -5089.21c0,-194.41 157.6,-352.01 352.02,-352.01l2221.48 0c194.41,0 352.02,157.6 352.02,352.01l0 5089.21c0,194.41 -157.6,352.02 -352.02,352.02z"/>
      </g>
     </g>
     <g>
      <g>
       <path class="fil5" d="M1614.15 5941.66l0 -5083.65c0,-170.49 138.21,-308.7 308.69,-308.7l2215.93 0c170.49,0 308.7,138.21 308.7,308.7l0 5083.65c0,170.49 -138.21,308.7 -308.7,308.7l-2215.92 0c-170.49,0 -308.7,-138.21 -308.7,-308.7z"/>
      </g>
     </g>
     <g>
      <g>
       <g>
        <g>
         <path class="fil7" d="M2820.7 731.89c-17.94,0 -32.54,-14.59 -32.54,-32.54 0,-17.94 14.6,-32.54 32.54,-32.54l418.4 0c17.94,0 32.54,14.59 32.54,32.54 0,17.94 -14.59,32.54 -32.54,32.54l-418.4 0z"/>
        </g>
       </g>
      </g>
      <g>
       <g>
        <g>
         <g>
          <path class="fil7" d="M2596.37 731.89c-17.94,0 -32.53,-14.59 -32.53,-32.54 0,-17.94 14.59,-32.54 32.53,-32.54 17.93,0 32.52,14.59 32.52,32.54 0,17.94 -14.6,32.54 -32.52,32.54z"/>
         </g>
        </g>
       </g>
       <g>
        <g>
         <g>
          <path class="fil7" d="M2716.11 731.89c-17.94,0 -32.54,-14.59 -32.54,-32.54 0,-17.94 14.6,-32.54 32.54,-32.54 17.93,0 32.53,14.59 32.53,32.54 0,17.94 -14.6,32.54 -32.53,32.54z"/>
         </g>
        </g>
       </g>
       <g>
        <g>
         <g>
          <path class="fil7" d="M3465.26 731.89c-17.94,0 -32.54,-14.59 -32.54,-32.54 0,-17.94 14.59,-32.54 32.54,-32.54 17.93,0 32.52,14.59 32.52,32.54 0,17.94 -14.59,32.54 -32.52,32.54z"/>
         </g>
        </g>
       </g>
       <g>
        <g>
         <g>
          <path class="fil7" d="M3345.51 731.89c-17.94,0 -32.54,-14.59 -32.54,-32.54 0,-17.94 14.59,-32.54 32.54,-32.54 17.93,0 32.53,14.59 32.53,32.54 0,17.94 -14.6,32.54 -32.53,32.54z"/>
         </g>
        </g>
       </g>
      </g>
     </g>
     <g>
      <g>
       <path class="fil3" d="M4180.56 588.4l-506.45 0c-38.21,0 -71.83,25.24 -82.48,61.94l-32.21 110.96c-11.93,41.09 -49.57,69.36 -92.35,69.36l-872.53 0c-42.78,0 -80.42,-28.27 -92.35,-69.36l-32.2 -110.96c-10.65,-36.7 -44.27,-61.94 -82.48,-61.94l-393.83 0c-173.2,0 -313.61,140.41 -313.61,313.61l0 5059.58c0,117.06 94.89,211.95 211.95,211.95l2303.37 0c102.81,0 186.15,-83.35 186.15,-186.15l0 -5198c0,-111 -89.98,-200.99 -200.99,-200.99z"/>
      </g>
     </g>
     <g>
      <g>
       <path class="fil1" d="M4291.09 681.79c-56.86,-57.62 -135.8,-93.39 -223.16,-93.39l-458.32 0 -70.32 242.26 -1016.96 0 -70.32 -242.26 -567.02 0c-113.17,0 -204.91,91.74 -204.91,204.91l0 3663.42 8.04 0.91c263.3,28.61 519.48,-136.92 664.02,-358.85 144.53,-221.94 195.59,-491.4 221.03,-755.03 25.44,-263.63 28.63,-531 90.55,-788.52 103.96,-432.35 378.08,-821.37 750.25,-1064.73 183.72,-120.13 389.42,-205.74 564.59,-338.04 154.11,-116.39 286.69,-282.9 312.54,-470.68z"/>
      </g>
     </g>
     <g>
      <g>
       <path class="fil1" d="M4381.55 6046.48l0 -1621c-415.91,42.15 -805.19,293.97 -1014.15,656.04 -188.48,326.58 -225.83,735.29 -105.43,1092.02l992.53 0c70.17,0 127.06,-56.89 127.06,-127.06z"/>
      </g>
     </g>
     <g>
      <g>
       <path class="fil7" d="M4493.51 1762.39l4.37 0c8.17,0 14.8,6.63 14.8,14.8l0 636.22c0,8.18 -6.63,14.81 -14.8,14.81l-4.37 0 0 -665.83z"/>
      </g>
     </g>
     <g>
      <g>
       <path class="fil7" d="M1568.05 2172.72l-5.07 0c-8.18,0 -14.81,6.63 -14.81,14.81l0 391.94c0,8.18 6.63,14.81 14.81,14.81l5.07 0 0 -421.56z"/>
      </g>
     </g>
     <g>
      <g>
       <path class="fil7" d="M1568.05 1621.98l-5.07 0c-8.18,0 -14.81,6.63 -14.81,14.81l0 391.94c0,8.17 6.63,14.8 14.81,14.8l5.07 0 0 -421.55z"/>
      </g>
     </g>
     <g>
      <g>
       <path class="fil7" d="M1568.05 1208.58l-3.98 0c-7.27,0 -13.16,5.89 -13.16,13.16l0 169.68c0,7.27 5.89,13.16 13.16,13.16l3.98 0 0 -196.01z"/>
      </g>
     </g>
     <g>
      <g>
       <g>
        <g>
         <polygon class="fil5" points="3745.82,776.89 3725.73,776.89 3725.73,805.07 3745.82,805.07 "/>
        </g>
       </g>
       <g>
        <g>
         <polygon class="fil5" points="3778.52,764.34 3758.44,764.34 3758.44,805.07 3778.52,805.07 "/>
        </g>
       </g>
       <g>
        <g>
         <polygon class="fil5" points="3811.23,754.92 3791.14,754.92 3791.14,805.07 3811.23,805.07 "/>
        </g>
       </g>
       <g>
        <g>
         <polygon class="fil5" points="3843.93,736.72 3823.85,736.72 3823.85,805.07 3843.93,805.07 "/>
        </g>
       </g>
      </g>
      <g>
       <g>
        <g>
         <path class="fil5" d="M4140.6 806.48l-100.86 0c-3.98,0 -7.23,-3.24 -7.23,-7.23l0 -50.13c0,-3.99 3.22,-7.23 7.16,-7.23l100.93 -0.01c0.49,0 0.97,0.19 1.31,0.54 0.35,0.35 0.54,0.82 0.54,1.31l0 16.53 10.8 0c1.02,0 1.85,0.83 1.85,1.85l0 24.16c0,1.02 -0.83,1.85 -1.85,1.85l-10.8 0 0 16.53c0,1.02 -0.82,1.85 -1.85,1.85zm-1.85 -60.91l0 0 -99.09 0.01c-1.95,0 -3.47,1.55 -3.47,3.54l0 50.13c0,1.95 1.59,3.54 3.54,3.54l99.02 0 0 -16.53c0,-1.02 0.82,-1.85 1.85,-1.85l10.8 0 0 -20.46 -10.8 0c-1.03,0 -1.85,-0.83 -1.85,-1.85l0 -16.53z"/>
        </g>
       </g>
       <g>
        <g>
         <polygon class="fil5" points="4044.43,794.55 4044.43,753.81 4130.52,753.81 4130.52,772.18 4130.52,776.18 4130.52,794.55 "/>
        </g>
       </g>
      </g>
      <g>
       <g>
        <g>
         <path class="fil5" d="M3940.12 802.62c0,-4.07 -3.3,-7.37 -7.37,-7.37 -4.07,0 -7.37,3.3 -7.37,7.37 0,4.07 3.3,7.37 7.37,7.37 4.07,0 7.37,-3.3 7.37,-7.37z"/>
        </g>
       </g>
       <g>
        <g>
         <g>
          <path class="fil5" d="M3907.6 784.85l9.41 9.41c4.03,-4.03 9.6,-6.52 15.74,-6.52 6.13,0 11.7,2.5 15.73,6.52l9.41 -9.41c-6.44,-6.44 -15.33,-10.43 -25.14,-10.43 -9.81,0 -18.7,3.99 -25.15,10.43z"/>
         </g>
        </g>
        <g>
         <g>
          <path class="fil5" d="M3932.75 753.45c-15.59,0 -29.72,6.34 -39.96,16.58l9.41 9.41c7.83,-7.83 18.64,-12.67 30.56,-12.67 11.92,0 22.72,4.85 30.55,12.67l9.41 -9.41c-10.24,-10.24 -24.37,-16.58 -39.96,-16.58z"/>
         </g>
        </g>
        <g>
         <g>
          <path class="fil5" d="M3877.48 754.72l9.41 9.41c11.75,-11.75 27.97,-19.02 45.86,-19.02 17.89,0 34.11,7.27 45.85,19.02l9.41 -9.41c-14.16,-14.16 -33.71,-22.93 -55.27,-22.93 -21.56,0 -41.11,8.77 -55.27,22.93z"/>
         </g>
        </g>
       </g>
      </g>
     </g>
     <g>
      <g>
       <path class="fil1" d="M3692.9 2768.8c0,197.08 -159.76,356.84 -356.84,356.84 -197.08,0 -356.84,-159.76 -356.84,-356.84 0,-197.07 159.76,-356.84 356.84,-356.84 197.07,0 356.84,159.76 356.84,356.84z"/>
      </g>
     </g>
    </g>
    <g>
     <path class="fil5" d="M2076.08 2054.56c0,-90.69 47.59,-144.78 113.47,-144.78 65.89,0 113.87,54.09 113.87,144.78 0,90.69 -47.98,144.78 -113.87,144.78 -65.88,0 -113.47,-54.09 -113.47,-144.78zm197.25 0l0 0c0,-76.05 -34.16,-117.94 -83.78,-117.94 -49.62,0 -83.78,41.89 -83.78,117.94 0,76.05 34.16,117.94 83.78,117.94 49.61,0 83.78,-41.89 83.78,-117.94z"/>
     <path class="fil5" d="M2550.69 2052.12c0,96.79 -52.87,147.22 -130.13,147.22 -25.62,0 -49.62,-4.48 -67.51,-15.45l11.8 -23.59c14.64,9.76 34.16,13.42 55.31,13.42 61.41,0 100.85,-39.45 100.85,-116.72 0,-6.51 -0.41,-14.64 -1.22,-23.18 -14.23,31.31 -47.57,48.8 -87.02,48.8 -56.53,0 -95.98,-33.35 -95.98,-85.41 0,-53.28 41.89,-87.44 97.2,-87.44 75.64,0 116.71,52.46 116.71,142.34zm-40.26 -56.53l0 0c0,-31.31 -26.03,-61 -75.24,-61 -41.07,0 -69.54,23.99 -69.54,61.81 0,37.42 27.66,61.41 71.57,61.41 43.52,0 73.21,-26.84 73.21,-62.22z"/>
     <path class="fil5" d="M2593.4 2003.32c0,-12.61 9.76,-21.96 21.55,-21.96 11.8,0 21.97,9.35 21.97,21.96 0,12.61 -10.17,22.37 -21.97,22.37 -11.79,0 -21.55,-9.76 -21.55,-22.37zm0 173.25l0 0c0,-12.61 9.76,-21.96 21.55,-21.96 11.8,0 21.97,9.36 21.97,21.96 0,12.61 -10.17,22.37 -21.97,22.37 -11.79,0 -21.55,-9.76 -21.55,-22.37z"/>
     <path class="fil5" d="M2679.21 2054.56c0,-90.69 47.58,-144.78 113.47,-144.78 65.87,0 113.86,54.09 113.86,144.78 0,90.69 -47.99,144.78 -113.86,144.78 -65.89,0 -113.47,-54.09 -113.47,-144.78zm197.25 0l0 0c0,-76.05 -34.17,-117.94 -83.78,-117.94 -49.62,0 -83.78,41.89 -83.78,117.94 0,76.05 34.17,117.94 83.78,117.94 49.61,0 83.78,-41.89 83.78,-117.94z"/>
     <path class="fil5" d="M2948.45 2054.56c0,-90.69 47.58,-144.78 113.47,-144.78 65.88,0 113.87,54.09 113.87,144.78 0,90.69 -47.99,144.78 -113.87,144.78 -65.89,0 -113.47,-54.09 -113.47,-144.78zm197.26 0l0 0c0,-76.05 -34.17,-117.94 -83.78,-117.94 -49.61,0 -83.78,41.89 -83.78,117.94 0,76.05 34.17,117.94 83.78,117.94 49.61,0 83.78,-41.89 83.78,-117.94z"/>
    </g>
    <g>
     <g>
      <path class="fil0" d="M3976.51 1582.78l-1833.26 0c-100.7,0 -182.33,-81.63 -182.33,-182.34 0,-100.7 81.63,-182.34 182.33,-182.34l1833.26 0c100.7,0 182.34,81.64 182.34,182.34 0,100.7 -81.64,182.34 -182.34,182.34z"/>
     </g>
     <g>
      <path class="fil5" d="M3928.97 1470.01c-38.37,0 -69.58,-31.21 -69.58,-69.57 0,-38.36 31.21,-69.57 69.58,-69.57 38.35,0 69.57,31.21 69.57,69.57 0,38.37 -31.21,69.57 -69.57,69.57zm0 -125.25l0 0c-30.71,0 -55.69,24.98 -55.69,55.68 0,30.71 24.98,55.69 55.69,55.69 30.7,0 55.68,-24.98 55.68,-55.69 0,-30.7 -24.97,-55.68 -55.68,-55.68z"/>
     </g>
     <g>
      <path class="fil5" d="M4022.34 1488.04c-1.63,0 -3.25,-0.56 -4.57,-1.72l-45.75 -40.02c-2.89,-2.53 -3.19,-6.92 -0.65,-9.8 2.52,-2.91 6.92,-3.18 9.79,-0.66l45.75 40.02c2.89,2.53 3.19,6.92 0.65,9.8 -1.37,1.57 -3.3,2.37 -5.22,2.37z"/>
     </g>
    </g>
    <g>
     <g>
      <g>
       <g>
        <g>
         <g>
          <path class="fil5" d="M3918.36 2168.23c0,-0.3 5.17,0.55 14.7,-0.66 9.39,-1.3 23.55,-5.14 37.58,-16.43 6.97,-5.56 13.8,-12.98 18.92,-22.44 2.72,-4.65 4.6,-9.95 6.2,-15.5 1.33,-5.63 2.13,-11.61 2.04,-17.81 -0.2,-6.19 -1.02,-12.57 -2.82,-18.93 -1.86,-6.32 -4.5,-12.61 -8,-18.62 -7.1,-11.92 -17.89,-22.71 -31.76,-29.07l-0.72 -0.33 0.04 -0.78c0.84,-18.99 -10.19,-39.61 -29.05,-49.16 -18.68,-9.53 -44.53,-5.98 -60.53,10.12l-1.75 1.76 -0.51 -2.43c-6.42,-30.61 -30.38,-58.72 -62.14,-71.07 -8.15,-3.07 -16.55,-5.54 -25.12,-6.29 -2.13,-0.34 -4.26,-0.5 -6.4,-0.48 -2.13,-0.03 -4.27,-0.17 -6.39,-0.11 -4.24,0.39 -8.49,0.46 -12.61,1.43 -16.68,2.85 -31.78,10.96 -44.21,21.26 -12.29,10.55 -21.97,23.54 -28.26,37.52 -6.17,14.04 -9.04,29.01 -8.28,43.31l0.09 1.66 -1.61 -0.4c-17.01,-4.19 -34.52,-1.2 -48.87,5.79 -7.18,3.55 -13.66,8.02 -19.34,13.07 -5.56,5.2 -10.2,11 -13.97,17.08 -3.53,6.23 -6.19,12.68 -7.69,19.22 -1.33,6.54 -1.97,13.04 -1.36,19.24 0.89,12.43 4.9,23.51 10.13,32.46 10.47,18.17 24.9,27.77 34.95,32.35 10.28,4.56 16.47,5 16.37,5.37 -0.01,0.04 -0.38,-0.01 -1.11,-0.14 -0.84,-0.16 -1.91,-0.36 -3.26,-0.61 -1.44,-0.28 -3.24,-0.58 -5.27,-1.33 -2.03,-0.73 -4.5,-1.29 -7.04,-2.58 -10.26,-4.41 -25.06,-13.94 -35.9,-32.32 -5.41,-9.06 -9.61,-20.31 -10.62,-33.06 -0.67,-6.35 -0.07,-13.04 1.26,-19.79 1.49,-6.74 4.19,-13.41 7.79,-19.83 3.83,-6.28 8.58,-12.27 14.26,-17.63 5.8,-5.22 12.43,-9.83 19.8,-13.52 14.7,-7.24 32.76,-10.44 50.46,-6.13l-1.52 1.26c-0.83,-14.71 2.07,-30.1 8.37,-44.51 6.42,-14.36 16.3,-27.68 28.89,-38.51 12.73,-10.58 28.24,-18.94 45.45,-21.91 4.25,-1 8.64,-1.08 13,-1.48 2.19,-0.07 4.39,0.07 6.59,0.1 2.2,-0.01 4.41,0.15 6.59,0.49 8.83,0.78 17.47,3.31 25.83,6.46 32.57,12.69 57.15,41.48 63.74,73.09l-2.26 -0.67c16.95,-16.95 43.87,-20.57 63.57,-10.51 19.8,10.13 31.16,31.6 30.24,51.52l-0.69 -1.11c14.37,6.65 25.42,17.84 32.64,30.11 3.57,6.2 6.24,12.66 8.11,19.16 1.81,6.52 2.61,13.09 2.78,19.44 0.06,6.37 -0.81,12.51 -2.22,18.28 -1.69,5.69 -3.67,11.11 -6.48,15.85 -5.32,9.65 -12.36,17.13 -19.51,22.71 -14.39,11.32 -28.82,14.99 -38.33,16.07 -4.81,0.51 -8.55,0.56 -11.03,0.31 -2.49,-0.17 -3.76,-0.35 -3.76,-0.35z"/>
          <path class="fil5" d="M3925.46 2175.67c-1.48,0 -2.82,-0.06 -4.01,-0.18 -2.61,-0.18 -4.03,-0.39 -4.03,-0.39 -2.63,-0.37 -4.82,-2.22 -5.65,-4.74 -0.81,-2.52 -0.13,-5.3 1.78,-7.15 2.19,-2.11 4.64,-2.01 6.51,-1.97 1.95,0.07 6.09,0.2 12.14,-0.56 8.51,-1.17 21.41,-4.73 34.1,-14.94 7.2,-5.76 12.96,-12.59 17.15,-20.34 2.73,-4.65 4.44,-9.98 5.65,-14.13 1.22,-5.19 1.84,-10.61 1.76,-15.77 -0.2,-6.02 -1.06,-11.83 -2.56,-17.15 -1.74,-5.92 -4.21,-11.67 -7.33,-17.02 -6.9,-11.61 -17.09,-20.96 -28.65,-26.25 -2.59,-1.19 -4.91,-4.17 -4.76,-7.01 0.79,-17.94 -9.6,-35.48 -25.22,-43.38 -16.57,-8.46 -39.11,-4.64 -52.48,8.82l-1.72 1.74c-1.79,1.81 -4.46,2.48 -6.89,1.78 -2.46,-0.72 -4.31,-2.72 -4.84,-5.22l-0.52 -2.43c-6.04,-28.81 -28.76,-54.72 -57.88,-66.05 -8.96,-3.38 -16.37,-5.24 -23.2,-5.85 -2.22,-0.33 -4.06,-0.39 -5.75,-0.45l-2.57 -0.06c-1.24,-0.05 -2.46,-0.11 -3.65,-0.05l-3.07 0.25c-2.74,0.2 -5.48,0.37 -8.16,1 -14.52,2.5 -28.67,9.33 -41.36,19.85 -11.28,9.68 -20.44,21.81 -26.37,35.02 -5.71,13 -8.38,26.88 -7.69,40.11l0.09 1.61c0.12,2.2 -0.8,4.33 -2.5,5.74 -1.7,1.42 -3.93,1.94 -6.1,1.4l-1.61 -0.4c-14.26,-3.49 -29.94,-1.64 -44.15,5.3 -6.35,3.14 -12.34,7.19 -17.77,12.02 -4.76,4.46 -9.07,9.72 -12.68,15.55 -3.2,5.66 -5.54,11.5 -6.82,17.11 -1.3,6.39 -1.71,12.02 -1.21,17.02 0.73,10.4 3.92,20.58 9.21,29.63 10.22,17.74 24.33,26.11 31.83,29.53 6.58,2.92 11.27,3.97 13.54,4.47 1.91,0.43 4.29,0.96 5.87,3.57 0.99,1.61 1.28,3.57 0.81,5.39 -0.91,3.51 -5.41,5.61 -9.05,4.96l-3.32 -0.63c-2.15,-0.41 -4.17,-0.82 -6.43,-1.65l-1.56 -0.51c-1.94,-0.61 -4.04,-1.29 -6.21,-2.39 -8.78,-3.75 -26.1,-13.57 -38.72,-34.98 -6.55,-10.96 -10.55,-23.43 -11.56,-36.03 -0.68,-6.41 -0.23,-13.56 1.37,-21.68 1.61,-7.34 4.49,-14.65 8.56,-21.89 4.41,-7.26 9.59,-13.68 15.54,-19.29 6.58,-5.93 13.77,-10.83 21.46,-14.68 14.35,-7.07 30,-10 45.07,-8.41 0.62,-12.58 3.66,-25.39 8.98,-37.55 6.91,-15.49 17.54,-29.65 30.72,-40.99 15,-12.48 31.85,-20.57 48.79,-23.48 3.12,-0.74 6.71,-1.04 10.33,-1.3l3.21 -0.26c2.02,-0.07 3.62,-0.04 5.2,0.03l2.14 0.06c2.59,-0.02 5.03,0.18 7.6,0.58 7.87,0.67 16.65,2.85 27.18,6.82 30.03,11.69 54.26,36.69 64.57,65.68 18.19,-11.44 42.16,-13.17 61.18,-3.46 19.83,10.14 33,30.84 34,52.67 12.52,6.93 23.41,17.6 31,30.52 3.76,6.51 6.7,13.48 8.8,20.76 1.83,6.59 2.86,13.7 3.06,21.19 0.06,6.58 -0.76,13.3 -2.43,20.11 -2.26,7.71 -4.48,13.09 -7.26,17.75 -5.15,9.36 -12.33,17.71 -21.2,24.63 -15.64,12.3 -31.37,16.31 -41.81,17.5 -3.13,0.33 -6,0.5 -8.49,0.5z"/>
         </g>
        </g>
       </g>
      </g>
      <g>
       <g>
        <g>
         <g>
          <path class="fil5" d="M3753.61 2118.5c0.65,0.39 -7.98,15.93 -19.26,34.7 -11.29,18.78 -20.96,33.69 -21.61,33.3 -0.65,-0.39 7.98,-15.93 19.27,-34.7 11.29,-18.78 20.96,-33.69 21.61,-33.3z"/>
          <path class="fil5" d="M3713.23 2194.05c-1.29,0 -2.51,-0.67 -4.04,-1.58 -6.66,-4.02 -6.6,-5.25 16.86,-44.26 21.23,-35.31 22.87,-35.72 25.84,-36.46 1.78,-0.46 3.7,-0.14 5.26,0.78 0.02,0 0.02,0.01 0.03,0.01 0,0 0,0 0.01,0l0 0.01c0,0 0.02,0 0.02,0.01 1.56,0.94 2.72,2.52 3.17,4.28 0.74,2.98 1.15,4.61 -20.07,39.94 -18.01,29.95 -22.81,37.26 -27.07,37.27z"/>
         </g>
        </g>
       </g>
      </g>
      <g>
       <g>
        <g>
         <g>
          <path class="fil5" d="M3817.65 2118.5c0.65,0.39 -7.98,15.93 -19.26,34.7 -11.29,18.78 -20.96,33.69 -21.61,33.3 -0.65,-0.39 7.98,-15.93 19.27,-34.7 11.29,-18.78 20.96,-33.69 21.61,-33.3z"/>
          <path class="fil5" d="M3776.83 2193.45c-1.29,0 -2.56,-0.34 -3.65,-1 -6.59,-3.99 -6.54,-5.22 16.9,-44.22 21.22,-35.31 22.87,-35.72 25.85,-36.46 1.79,-0.44 3.74,-0.14 5.32,0.81 6.59,3.99 6.52,5.22 -16.91,44.22 -21.23,35.32 -22.87,35.73 -25.84,36.47 -0.56,0.13 -1.11,0.2 -1.67,0.2z"/>
         </g>
        </g>
       </g>
      </g>
      <g>
       <g>
        <g>
         <g>
          <path class="fil5" d="M3881.69 2118.5c0.65,0.39 -7.98,15.93 -19.26,34.7 -11.29,18.78 -20.96,33.69 -21.61,33.3 -0.65,-0.39 7.98,-15.93 19.27,-34.7 11.28,-18.78 20.96,-33.69 21.61,-33.3z"/>
          <path class="fil5" d="M3841.31 2194.05c-1.29,0 -2.51,-0.67 -4.04,-1.58 -6.66,-4.02 -6.6,-5.25 16.86,-44.26 21.23,-35.31 22.87,-35.72 25.84,-36.46 1.78,-0.46 3.7,-0.14 5.26,0.78 0.01,0 0.01,0.01 0.03,0.01 0,0 0,0 0.01,0l0 0.01c0,0 0.02,0 0.02,0.01 1.56,0.94 2.72,2.52 3.17,4.28 0.75,2.98 1.15,4.61 -20.07,39.94 -18.01,29.95 -22.81,37.26 -27.07,37.27z"/>
         </g>
        </g>
       </g>
      </g>
      <g>
       <g>
        <g>
         <g>
          <path class="fil5" d="M3679.48 2213.89c0.65,0.39 -7.98,15.93 -19.27,34.7 -11.29,18.78 -20.96,33.69 -21.61,33.3 -0.65,-0.39 7.98,-15.93 19.27,-34.71 11.29,-18.78 20.96,-33.68 21.61,-33.29z"/>
          <path class="fil5" d="M3638.65 2288.84c-1.27,0 -2.55,-0.35 -3.65,-1.01 -1.56,-0.94 -2.73,-2.52 -3.17,-4.29 -0.75,-2.98 -1.16,-4.61 20.08,-39.93 23.39,-38.91 24.46,-39.64 31.1,-35.69 0.03,0.01 0.04,0.02 0.06,0.03 6.59,3.99 6.54,5.22 -16.9,44.22 -21.25,35.33 -22.88,35.72 -25.85,36.46 -0.54,0.13 -1.11,0.2 -1.67,0.2z"/>
         </g>
        </g>
       </g>
      </g>
      <g>
       <g>
        <g>
         <g>
          <path class="fil5" d="M3743.52 2213.89c0.65,0.39 -7.98,15.93 -19.27,34.7 -11.29,18.78 -20.96,33.69 -21.61,33.3 -0.65,-0.39 7.98,-15.93 19.27,-34.71 11.29,-18.78 20.96,-33.68 21.61,-33.29z"/>
          <path class="fil5" d="M3702.69 2288.83c-1.28,0 -2.55,-0.34 -3.65,-1 -1.56,-0.94 -2.72,-2.52 -3.17,-4.28 -0.74,-2.97 -1.15,-4.61 20.07,-39.93 23.44,-39.02 24.5,-39.65 31.11,-35.69 0.04,0.02 0.07,0.04 0.11,0.06 6.5,4.01 6.44,5.24 -16.96,44.19 -21.23,35.32 -22.87,35.72 -25.84,36.46 -0.54,0.13 -1.11,0.2 -1.67,0.2z"/>
         </g>
        </g>
       </g>
      </g>
      <g>
       <g>
        <g>
         <g>
          <path class="fil5" d="M3807.55 2213.89c0.65,0.39 -7.98,15.93 -19.26,34.7 -11.29,18.78 -20.96,33.69 -21.61,33.3 -0.65,-0.39 7.98,-15.93 19.27,-34.71 11.29,-18.78 20.96,-33.68 21.61,-33.29z"/>
          <path class="fil5" d="M3766.73 2288.84c-1.28,0 -2.55,-0.35 -3.65,-1.01 -1.56,-0.94 -2.72,-2.52 -3.17,-4.29 -0.74,-2.98 -1.15,-4.61 20.09,-39.93 23.39,-38.91 24.45,-39.64 31.1,-35.69 0.03,0.01 0.04,0.02 0.06,0.03 6.59,3.99 6.54,5.22 -16.9,44.22 -21.25,35.33 -22.88,35.72 -25.85,36.46 -0.54,0.13 -1.11,0.2 -1.67,0.2z"/>
         </g>
        </g>
       </g>
      </g>
      <g>
       <g>
        <g>
         <g>
          <path class="fil5" d="M3874.43 2215.34c0.65,0.39 -7.98,15.93 -19.26,34.7 -11.29,18.78 -20.96,33.69 -21.61,33.3 -0.65,-0.39 7.98,-15.93 19.27,-34.7 11.29,-18.78 20.96,-33.69 21.61,-33.3z"/>
          <path class="fil5" d="M3834.06 2290.9c-1.29,0 -2.51,-0.67 -4.04,-1.58 -6.66,-4.01 -6.61,-5.24 16.86,-44.26 21.24,-35.31 22.87,-35.72 25.83,-36.46 1.78,-0.44 3.7,-0.15 5.26,0.78 0.02,0 0.02,0 0.03,0 0,0 0,0.01 0.01,0.01l0 0.01c0,0 0.02,0 0.02,0.01 1.56,0.94 2.72,2.52 3.17,4.28 0.74,2.98 1.15,4.61 -20.07,39.94 -18.01,29.95 -22.81,37.26 -27.07,37.27z"/>
         </g>
        </g>
       </g>
      </g>
     </g>
    </g>
    <g>
     <path class="fil2" d="M2833.65 5058.21c0,32.5 -26.35,58.84 -58.85,58.84 -32.5,0 -58.85,-26.34 -58.85,-58.84 0,-32.5 26.35,-58.85 58.85,-58.85 32.5,0 58.85,26.35 58.85,58.85z"/>
    </g>
    <g>
     <path class="fil0" d="M3030.42 5058.21c0,32.5 -26.35,58.84 -58.84,58.84 -32.5,0 -58.85,-26.34 -58.85,-58.84 0,-32.5 26.35,-58.85 58.85,-58.85 32.5,0 58.84,26.35 58.84,58.85z"/>
    </g>
    <g>
     <path class="fil0" d="M3227.2 5058.21c0,32.5 -26.35,58.84 -58.85,58.84 -32.5,0 -58.85,-26.34 -58.85,-58.84 0,-32.5 26.35,-58.85 58.85,-58.85 32.5,0 58.85,26.35 58.85,58.85z"/>
    </g>
    <g>
     <path class="fil0" d="M3423.98 5058.21c0,32.5 -26.35,58.84 -58.85,58.84 -32.5,0 -58.85,-26.34 -58.85,-58.84 0,-32.5 26.35,-58.85 58.85,-58.85 32.5,0 58.85,26.35 58.85,58.85z"/>
    </g>
    <g>
     <path class="fil4" d="M2284.17 5825.33l-222.32 0c-69.59,0 -126,-56.41 -126,-126l0 -222.33c0,-69.59 56.41,-126 126,-126l222.32 0c69.59,0 126,56.41 126,126l0 222.33c0,69.59 -56.41,126 -126,126z"/>
    </g>
    <g>
     <path class="fil0" d="M2867.88 5820.91l-207.26 0c-73.75,0 -133.53,-59.78 -133.53,-133.54l0 -207.25c0,-73.75 59.78,-133.54 133.53,-133.54l207.26 0c73.75,0 133.53,59.78 133.53,133.54l0 207.25c0,73.75 -59.78,133.54 -133.53,133.54z"/>
    </g>
    <g>
     <path class="fil7" d="M3451.59 5816.5l-192.18 0c-77.91,0 -141.07,-63.16 -141.07,-141.07l0 -192.18c0,-77.91 63.16,-141.07 141.07,-141.07l192.18 0c77.91,0 141.07,63.16 141.07,141.07l0 192.18c0,77.91 -63.16,141.07 -141.07,141.07z"/>
    </g>
    <g>
     <path class="fil5" d="M4041.19 5825.33l-188.89 0c-78.82,0 -142.72,-63.9 -142.72,-142.72l0 -188.89c0,-78.82 63.89,-142.72 142.72,-142.72l188.89 0c78.82,0 142.72,63.9 142.72,142.72l0 188.89c0,78.82 -63.9,142.72 -142.72,142.72z"/>
    </g>
    <g>
     <path class="fil7" d="M2285.31 4798.5l-224.61 0c-68.95,0 -124.85,-55.9 -124.85,-124.86l0 -224.61c0,-68.96 55.9,-124.85 124.85,-124.85l224.61 0c68.96,0 124.86,55.9 124.86,124.85l0 224.61c0,68.96 -55.9,124.86 -124.86,124.86z"/>
    </g>
    <g>
     <path class="fil5" d="M2855.02 4794.08l-181.53 0c-80.85,0 -146.39,-65.54 -146.39,-146.4l0 -181.53c0,-80.85 65.54,-146.4 146.39,-146.4l181.53 0c80.85,0 146.39,65.54 146.39,146.4l0 181.53c0,80.85 -65.54,146.4 -146.39,146.4z"/>
    </g>
    <g>
     <path class="fil0" d="M3463.12 4789.67l-215.24 0c-71.54,0 -129.54,-58 -129.54,-129.54l0 -215.24c0,-71.54 58,-129.54 129.54,-129.54l215.24 0c71.54,0 129.54,58 129.54,129.54l0 215.24c0,71.54 -58,129.54 -129.54,129.54z"/>
    </g>
    <g>
     <path class="fil4" d="M4042.26 4785.26l-191.02 0c-78.23,0 -141.65,-63.42 -141.65,-141.65l0 -191.03c0,-78.23 63.42,-141.65 141.65,-141.65l191.02 0c78.23,0 141.65,63.42 141.65,141.65l0 191.03c0,78.23 -63.42,141.65 -141.65,141.65z"/>
    </g>
    <g>
     <g>
      <g>
       <g>
        <g>
         <g>
          <path class="fil8" d="M2122.03 4476.86c7.57,-4.57 15.63,-8.04 23.94,-10.41l4.93 -23.69 40.03 -0.7 5.76 23.5c8.39,2.07 16.56,5.25 24.29,9.56l20.23 -13.26 28.8 27.81 -12.54 20.68c4.57,7.57 8.04,15.63 10.41,23.94l23.69 4.93 0.7 40.03 -23.51 5.76c-2.06,8.39 -5.25,16.57 -9.56,24.29l13.26 20.24 -27.81 28.8 -20.69 -12.54c-7.57,4.57 -15.63,8.04 -23.94,10.41l-4.93 23.69 -40.03 0.7 -5.76 -23.51c-8.39,-2.07 -16.56,-5.25 -24.29,-9.56l-20.24 13.27 -28.8 -27.81 12.54 -20.68c-4.57,-7.57 -8.04,-15.63 -10.4,-23.94l-23.69 -4.93 -0.7 -40.04 23.51 -5.76c2.07,-8.39 5.25,-16.56 9.56,-24.29l-13.26 -20.24 27.81 -28.8 20.69 12.54zm13.44 48.24l0 0c-20.01,20.73 -19.43,53.76 1.3,73.78 20.73,20.01 53.76,19.43 73.77,-1.3 20.01,-20.73 19.43,-53.76 -1.3,-73.77 -20.73,-20.02 -53.76,-19.43 -73.77,1.3z"/>
         </g>
        </g>
       </g>
      </g>
     </g>
    </g>
    <g>
     <g>
      <path class="fil8" d="M3244.91 5694.43l17.28 -64.47c-9.78,-17.65 -14.93,-37.43 -14.93,-57.51 0,-65.64 53.41,-119.05 119.05,-119.05 65.64,0 119.05,53.41 119.05,119.05 0,65.64 -53.41,119.05 -119.05,119.05 -19.7,0 -39.17,-4.97 -56.59,-14.42l-64.81 17.36zm68.03 -41.52l0 0 4.08 2.44c14.98,8.93 32.03,13.65 49.29,13.65 53.23,0 96.55,-43.31 96.55,-96.55 0,-53.24 -43.31,-96.54 -96.55,-96.54 -53.23,0 -96.54,43.31 -96.54,96.54 0,17.58 4.88,34.89 14.12,50.06l2.5 4.11 -9.65 36 36.2 -9.7z"/>
     </g>
     <g>
      <path class="fil9" d="M3409.22 5589.7c-4.9,-2.93 -11.28,-6.2 -17.05,-3.84 -4.43,1.81 -7.26,8.74 -10.13,12.28 -1.47,1.82 -3.23,2.1 -5.49,1.19 -16.63,-6.62 -29.36,-17.72 -38.54,-33.01 -1.56,-2.38 -1.28,-4.25 0.59,-6.46 2.78,-3.26 6.25,-6.97 7,-11.37 0.75,-4.39 -1.31,-9.54 -3.13,-13.45 -2.33,-5 -4.92,-12.14 -9.93,-14.97 -4.61,-2.6 -10.67,-1.15 -14.78,2.2 -7.08,5.77 -10.5,14.81 -10.4,23.77 0.03,2.55 0.34,5.09 0.93,7.54 1.43,5.91 4.16,11.43 7.24,16.67 2.32,3.96 4.84,7.8 7.56,11.49 8.89,12.08 19.95,22.57 32.76,30.42 6.4,3.92 13.3,7.36 20.43,9.72 8.01,2.65 15.14,5.4 23.78,3.76 9.05,-1.72 17.97,-7.32 21.57,-16.04 1.06,-2.58 1.59,-5.46 1,-8.19 -1.23,-5.64 -8.87,-8.99 -13.43,-11.72z"/>
     </g>
    </g>
    <g>
     <path class="fil9" d="M2256.76 5616.68c-9.31,-5.56 -21.42,-11.78 -32.39,-7.3 -8.41,3.44 -13.78,16.61 -19.24,23.34 -2.8,3.45 -6.13,3.99 -10.43,2.26 -31.58,-12.58 -55.78,-33.66 -73.2,-62.7 -2.95,-4.52 -2.42,-8.07 1.13,-12.26 5.27,-6.2 11.88,-13.24 13.3,-21.59 1.43,-8.35 -2.5,-18.12 -5.94,-25.56 -4.41,-9.5 -9.35,-23.06 -18.87,-28.44 -8.76,-4.94 -20.28,-2.17 -28.07,4.18 -13.46,10.96 -19.95,28.13 -19.76,45.15 0.05,4.84 0.65,9.66 1.78,14.33 2.72,11.23 7.91,21.71 13.74,31.67 4.41,7.52 9.19,14.81 14.35,21.83 16.89,22.94 37.91,42.88 62.24,57.79 12.16,7.44 25.26,13.98 38.81,18.46 15.21,5.03 28.76,10.25 45.18,7.14 17.19,-3.26 34.15,-13.91 40.97,-30.48 2.02,-4.91 3.03,-10.37 1.9,-15.55 -2.33,-10.72 -16.84,-17.08 -25.5,-22.27z"/>
    </g>
    <g>
     <g>
      <path class="fil8" d="M4020.96 5512.19c-7.65,0 -13.85,6.2 -13.85,13.85 0,7.65 6.2,13.86 13.85,13.86 7.65,0 13.86,-6.2 13.86,-13.86 0,-7.65 -6.2,-13.85 -13.86,-13.85z"/>
     </g>
     <g>
      <path class="fil8" d="M3959.36 5525.97c-32.1,0 -58.21,26.11 -58.21,58.21 0,32.09 26.11,58.21 58.21,58.21 32.09,0 58.21,-26.11 58.21,-58.21 0,-32.1 -26.11,-58.21 -58.21,-58.21zm0 95.49l0 0c-20.56,0 -37.29,-16.72 -37.29,-37.28 0,-20.56 16.73,-37.29 37.29,-37.29 20.56,0 37.28,16.72 37.28,37.29 0,20.56 -16.72,37.28 -37.28,37.28z"/>
     </g>
     <g>
      <path class="fil8" d="M4005.56 5706.35l-94.37 0c-39.15,0 -71,-31.85 -71,-71l0 -94.37c0,-39.15 31.85,-70.99 71,-70.99l94.37 0c39.15,0 71,31.84 71,70.99l0 94.37c0,39.15 -31.85,71 -71,71zm-94.37 -214.13l0 0c-26.89,0 -48.76,21.87 -48.76,48.76l0 94.37c0,26.89 21.87,48.76 48.76,48.76l94.37 0c26.89,0 48.76,-21.87 48.76,-48.76l0 -94.37c0,-26.89 -21.88,-48.76 -48.76,-48.76l-94.37 0z"/>
     </g>
    </g>
    <g>
     <path class="fil8" d="M2659.31 5699.26c-2.82,0 -5.47,-1.09 -7.45,-3.08 -4.1,-4.11 -4.1,-10.79 0,-14.89l56.36 -56.37c-30.39,-37.88 -27.44,-93.98 7.02,-128.44 18.21,-18.2 42.42,-28.23 68.16,-28.23 25.75,0 49.95,10.02 68.17,28.23 37.57,37.59 37.57,98.74 0,136.32 -18.22,18.2 -42.42,28.23 -68.17,28.23 -22.25,0 -43.07,-7.33 -60.29,-21.2l-56.35 56.35c-1.99,1.99 -4.63,3.08 -7.44,3.08zm124.08 -209.94l0 0c-20.12,0 -39.04,7.83 -53.26,22.06 -14.21,14.2 -22.03,33.12 -22.03,53.26 0,20.14 7.82,39.06 22.03,53.26 14.22,14.23 33.15,22.06 53.26,22.06 20.12,0 39.04,-7.83 53.26,-22.06 14.21,-14.2 22.03,-33.12 22.03,-53.26 0,-20.14 -7.82,-39.06 -22.03,-53.26 -14.22,-14.23 -33.13,-22.06 -53.26,-22.06z"/>
    </g>
    <g>
     <g>
      <path class="fil5" d="M3091.8 2334.27c0,2 -222.52,3.62 -496.94,3.62 -274.52,0 -496.99,-1.62 -496.99,-3.62 0,-2 222.47,-3.61 496.99,-3.61 274.43,0 496.94,1.62 496.94,3.61z"/>
     </g>
    </g>
    <g>
     <g>
      <g>
       <g>
        <g>
         <path class="fil8" d="M2784.84 4554.47c20.22,-8.48 34.59,-29.33 34.71,-53.89 0.13,-32.18 -24.22,-58.38 -54.4,-58.52 -30.17,-0.14 -54.74,25.83 -54.87,58.01 -0.1,24.8 14.38,45.89 34.81,54.4 -84.07,12.67 -80.26,104.04 -80.26,104.04l198.81 0.91c0,0 4.54,-92.37 -78.81,-104.96z"/>
        </g>
       </g>
      </g>
     </g>
    </g>
    <g>
     <g>
      <g>
       <g>
        <path class="fil8" d="M3511.08 4628.67c10.55,-24.65 4.15,-50.35 -13.19,-70.8 -17.34,-20.44 -46.62,-29.94 -72.66,-23.56 -4.62,-25.93 -22.7,-49.08 -46.73,-59.85 -24.04,-10.78 -53.34,-8.87 -75.78,4.93 -22.43,13.8 -37.36,39.09 -38.59,65.41 -17.83,2.99 -34.07,14.39 -42.94,30.14 -8.87,15.76 -10.19,35.56 -3.49,52.35l293.39 1.39z"/>
       </g>
      </g>
     </g>
    </g>
    <g>
     <g>
      <g>
       <g>
        <g>
         <path class="fil8" d="M3987.62 4630.19c-0.05,10.68 -8.75,19.3 -19.43,19.25 -10.68,-0.05 -19.3,-8.75 -19.24,-19.43 0.05,-10.68 8.74,-19.3 19.43,-19.25 10.68,0.05 19.3,8.75 19.25,19.43z"/>
        </g>
       </g>
       <g>
        <g>
         <g>
          <path class="fil8" d="M3929.63 4605.33c21.24,-22.3 55.75,-22.98 77.53,-1.02 9.87,9.95 25.33,-5.35 15.45,-15.31 -29.88,-30.12 -78.94,-29.94 -108.29,0.88 -9.65,10.13 5.63,25.61 15.31,15.45z"/>
         </g>
        </g>
       </g>
       <g>
        <g>
         <g>
          <path class="fil8" d="M3863.95 4515.32c29.41,-25.42 64.5,-41.42 103.81,-41.52 38.96,-0.09 77.37,13.74 105.91,40.53 10.19,9.57 25.68,-5.7 15.45,-15.31 -32.69,-30.7 -76.52,-47.08 -121.26,-46.97 -45.23,0.11 -85.43,18.6 -119.22,47.81 -10.61,9.17 4.76,24.57 15.31,15.45z"/>
         </g>
        </g>
       </g>
       <g>
        <g>
         <g>
          <path class="fil8" d="M3889.87 4565.21c19.71,-21.31 47.33,-34.66 76.54,-35.33 29.99,-0.68 58.95,11.67 79.8,33.09 9.78,10.04 25.22,-5.27 15.45,-15.31 -24.67,-25.35 -59.64,-40.34 -95.15,-39.53 -34.73,0.79 -68.39,16.15 -91.94,41.62 -9.49,10.26 5.78,25.76 15.31,15.45z"/>
         </g>
        </g>
       </g>
      </g>
     </g>
    </g>
   </g>
   <g>
    <g>
     <g>
      <g>
       <g>
        <g>
         <g>
          <g>
           <g>
            <g>
             <g>
              <g>
               <g>
                <g>
                 <path class="fil4" d="M1135.98 5845.89l-5.11 289.44c0,0 292.48,102.4 296.74,155.98l-561.55 10.24 -10.54 -451.3 280.46 -4.36z"/>
                </g>
               </g>
              </g>
             </g>
            </g>
           </g>
          </g>
         </g>
        </g>
       </g>
       <g>
        <g>
         <g>
          <g>
           <g>
            <g>
             <g>
              <g>
               <g>
                <g>
                 <g>
                  <path class="fil0" d="M956.79 6114.16c-10.82,3.17 -18.1,15.52 -15.38,26.46 2.72,10.93 15.22,18.45 26.09,15.47 10.87,-2.98 20.07,-17.54 16.14,-28.11 -3.93,-10.56 -19.09,-18.58 -28.93,-13.08l2.08 -0.74z"/>
                 </g>
                </g>
               </g>
              </g>
             </g>
            </g>
           </g>
          </g>
         </g>
        </g>
       </g>
       <g>
        <g>
         <g>
          <g>
           <g>
            <g>
             <g>
              <g>
               <g>
                <g>
                 <path class="fil5" d="M866.06 6301.55l0.72 -45.53 538.14 7.21c0,0 25.2,10.42 22.69,28.08l-561.55 10.24z"/>
                </g>
               </g>
              </g>
             </g>
            </g>
           </g>
          </g>
         </g>
        </g>
       </g>
       <g>
        <g>
         <g>
          <g>
           <g>
            <g>
             <g>
              <g>
               <g>
                <g>
                 <g>
                  <path class="fil5" d="M1139.92 6132.3c-0.04,2.74 -13.73,4.24 -27.06,13.3 -13.57,8.72 -20.31,20.72 -22.85,19.68 -2.54,-0.48 1.25,-16.96 17.59,-27.65 16.23,-10.83 32.87,-7.86 32.32,-5.33z"/>
                 </g>
                </g>
               </g>
              </g>
             </g>
            </g>
           </g>
          </g>
         </g>
        </g>
       </g>
       <g>
        <g>
         <g>
          <g>
           <g>
            <g>
             <g>
              <g>
               <g>
                <g>
                 <g>
                  <path class="fil5" d="M1199.27 6155.59c0.67,2.64 -11.12,7.52 -20.22,19.29 -9.44,11.5 -11.57,24.08 -14.3,24.01 -2.57,0.48 -4.76,-15.54 6.84,-29.96 11.46,-14.52 27.57,-15.96 27.69,-13.34z"/>
                 </g>
                </g>
               </g>
              </g>
             </g>
            </g>
           </g>
          </g>
         </g>
        </g>
       </g>
       <g>
        <g>
         <g>
          <g>
           <g>
            <g>
             <g>
              <g>
               <g>
                <g>
                 <g>
                  <path class="fil5" d="M1234 6225.47c-2.48,0.63 -6.55,-13 0.22,-28.15 6.66,-15.2 19.48,-21.36 20.69,-19.09 1.59,2.23 -6.59,10.44 -11.95,22.96 -5.66,12.39 -6.23,23.96 -8.95,24.28z"/>
                 </g>
                </g>
               </g>
              </g>
             </g>
            </g>
           </g>
          </g>
         </g>
        </g>
       </g>
       <g>
        <g>
         <g>
          <g>
           <g>
            <g>
             <g>
              <g>
               <g>
                <g>
                 <g>
                  <path class="fil5" d="M1133.77 6066.21c-1.11,2.52 -13.76,-1.04 -29.23,0.3 -15.51,1.02 -27.47,6.44 -28.94,4.11 -1.63,-1.95 9.97,-12.32 28.22,-13.63 18.24,-1.46 31.26,7.04 29.96,9.22z"/>
                 </g>
                </g>
               </g>
              </g>
             </g>
            </g>
           </g>
          </g>
         </g>
        </g>
       </g>
      </g>
     </g>
     <g>
      <g>
       <g>
        <g>
         <g>
          <g>
           <g>
            <g>
             <g>
              <g>
               <g>
                <g>
                 <path class="fil4" d="M809.51 5691.49l-200.89 208.43c0,0 144.39,274.2 111.01,316.33l-418.11 -375.01 299.7 -337.6 208.3 187.85z"/>
                </g>
               </g>
              </g>
             </g>
            </g>
           </g>
          </g>
         </g>
        </g>
       </g>
       <g>
        <g>
         <g>
          <g>
           <g>
            <g>
             <g>
              <g>
               <g>
                <g>
                 <g>
                  <path class="fil0" d="M495.58 5765.85c-10.07,-5.05 -23.83,-0.96 -29.28,8.89 -5.45,9.86 -1.43,23.88 8.57,29.1 9.98,5.22 26.64,0.83 30.96,-9.59 4.31,-10.41 -1.32,-26.61 -12.27,-29.28l2.02 0.87z"/>
                 </g>
                </g>
               </g>
              </g>
             </g>
            </g>
           </g>
          </g>
         </g>
        </g>
       </g>
       <g>
        <g>
         <g>
          <g>
           <g>
            <g>
             <g>
              <g>
               <g>
                <g>
                 <path class="fil5" d="M301.51 5841.24l31.54 -32.84 389.08 371.83c0,0 11.35,24.79 -2.51,36.02l-418.11 -375.01z"/>
                </g>
               </g>
              </g>
             </g>
            </g>
           </g>
          </g>
         </g>
        </g>
       </g>
       <g>
        <g>
         <g>
          <g>
           <g>
            <g>
             <g>
              <g>
               <g>
                <g>
                 <g>
                  <path class="fil5" d="M617.3 5903.87c-1.9,1.98 -12.94,-6.25 -28.87,-8.7 -15.87,-2.86 -28.98,1.34 -30.14,-1.15 -1.52,-2.08 12.47,-11.56 31.71,-8.26 19.26,3.13 29.43,16.63 27.3,18.11z"/>
                 </g>
                </g>
               </g>
              </g>
             </g>
            </g>
           </g>
          </g>
         </g>
        </g>
       </g>
       <g>
        <g>
         <g>
          <g>
           <g>
            <g>
             <g>
              <g>
               <g>
                <g>
                 <g>
                  <path class="fil5" d="M644.89 5961.34c-1.31,2.39 -13.26,-2.06 -27.94,0.35 -14.75,1.98 -24.87,9.75 -26.83,7.83 -2.2,-1.4 7.11,-14.62 25.41,-17.28 18.28,-2.81 31.06,7.1 29.36,9.09z"/>
                 </g>
                </g>
               </g>
              </g>
             </g>
            </g>
           </g>
          </g>
         </g>
        </g>
       </g>
       <g>
        <g>
         <g>
          <g>
           <g>
            <g>
             <g>
              <g>
               <g>
                <g>
                 <g>
                  <path class="fil5" d="M622.72 6036.17c-2.24,-1.23 4.06,-13.98 19.33,-20.46 15.23,-6.59 28.81,-2.36 28.15,0.11 -0.35,2.71 -11.93,3.15 -24.39,8.66 -12.58,5.22 -20.89,13.3 -23.09,11.68z"/>
                 </g>
                </g>
               </g>
              </g>
             </g>
            </g>
           </g>
          </g>
         </g>
        </g>
       </g>
       <g>
        <g>
         <g>
          <g>
           <g>
            <g>
             <g>
              <g>
               <g>
                <g>
                 <g>
                  <path class="fil5" d="M657.81 5851.29c-2.52,1.09 -9.36,-10.13 -21.61,-19.69 -12.05,-9.82 -24.5,-14 -24,-16.7 0.15,-2.54 15.69,-2.23 29.95,9.24 14.35,11.35 18.09,26.45 15.65,27.15z"/>
                 </g>
                </g>
               </g>
              </g>
             </g>
            </g>
           </g>
          </g>
         </g>
        </g>
       </g>
      </g>
     </g>
     <g>
      <g>
       <g>
        <g>
         <g>
          <g>
           <g>
            <g>
             <g>
              <g>
               <path class="fil10" d="M1916.82 2708.84l-246.91 163.05 3.65 64.64 64.41 135.9c0,0 29.78,28.24 117.22,-60.31 87.45,-88.56 198.08,-264.56 198.08,-264.56l-136.46 -38.72z"/>
              </g>
             </g>
            </g>
           </g>
          </g>
         </g>
        </g>
       </g>
      </g>
      <g>
       <g>
        <g>
         <g>
          <g>
           <g>
            <g>
             <g>
              <g>
               <g>
                <path class="fil5" d="M2332.5 2369.1c-2.84,-6.46 -8.93,-11 -16.05,-11.95l-120.98 -16.22c-10.66,-1.26 -21.36,1.99 -29.43,8.92l-346.4 297.47 15.68 15.26 129.93 31.3 369.65 -319.33 -2.39 -5.45z"/>
               </g>
              </g>
             </g>
            </g>
           </g>
          </g>
         </g>
        </g>
       </g>
       <g>
        <g>
         <g>
          <g>
           <g>
            <g>
             <g>
              <g>
               <g>
                <path class="fil8" d="M2236.49 2393.77c1.87,2.81 6.5,3.11 10.33,0.66 3.83,-2.44 5.42,-6.7 3.55,-9.52 -1.87,-2.81 -6.5,-3.1 -10.33,-0.66 -3.84,2.44 -5.43,6.7 -3.56,9.51z"/>
               </g>
              </g>
             </g>
            </g>
           </g>
          </g>
         </g>
        </g>
       </g>
       <g>
        <g>
         <g>
          <g>
           <g>
            <g>
             <g>
              <g>
               <g>
                <g>
                 <path class="fil7" d="M2334.9 2374.55c-0.07,0.49 -8.53,-0.19 -23.77,-1.81 -16.43,-1.93 -38.15,-4.47 -64.41,-7.55 -13.7,-1.72 -28.56,-3.57 -44.43,-5.56 -7.52,-1.35 -15.09,0.56 -20.98,5.44 -6.42,5.57 -13.02,11.28 -19.78,17.14 -27.31,23.52 -57.19,49.24 -88.54,76.24 -62.96,53.95 -120.22,102.48 -161.91,137.35 -20.23,16.72 -36.96,30.55 -49.61,41.01 -11.82,9.56 -18.52,14.68 -18.85,14.31 -0.33,-0.37 5.73,-6.19 16.98,-16.39 12.27,-10.89 28.48,-25.3 48.09,-42.71 40.82,-35.83 97.55,-84.97 160.51,-138.92 31.49,-26.85 61.48,-52.43 88.91,-75.81 6.87,-5.8 13.57,-11.47 20.09,-16.99 7.25,-6.07 17.5,-8.2 25.78,-6.52 15.85,2.3 30.69,4.44 44.37,6.43 26.17,4 47.8,7.3 64.17,9.8 15.13,2.47 23.46,4.07 23.39,4.56z"/>
                </g>
               </g>
              </g>
             </g>
            </g>
           </g>
          </g>
         </g>
        </g>
       </g>
      </g>
      <g>
       <g>
        <g>
         <g>
          <g>
           <g>
            <g>
             <g>
              <g>
               <g>
                <path class="fil10" d="M2209.17 2436.68c0,0 -11.03,-5.34 -26.29,24.63 -15.26,29.98 -61.29,115.31 -61.29,115.31l-51.76 -49.37 -78.87 -11.44c0,0 -20.91,10.68 -11.07,22.43 9.84,11.74 55.53,33.83 55.53,33.83l21.16 60.95 -88.04 -77.64c0,0 -36.45,-0.67 -32.32,22.85 4.13,23.52 54.58,107.64 54.58,107.64l-49.91 -18.17 -50.32 -53.84c0,0 -18.85,-4.38 -16.35,13.42 2.49,17.8 49.5,92.76 49.5,92.76l66.07 58.56c0,0 42.67,8.44 50.11,-2.7 7.44,-11.15 13.37,-28.34 13.37,-28.34 0,0 23.84,0.25 31,-9.35 7.16,-9.59 9.27,-27.34 9.27,-27.34 0,0 33.08,15.87 42.83,-2.31 9.76,-18.18 16.85,-57.41 17.53,-73.31 0.68,-15.91 57.91,-149.41 57.67,-154 -0.25,-4.59 21.98,-47.61 -2.41,-44.57z"/>
               </g>
              </g>
             </g>
            </g>
           </g>
          </g>
         </g>
        </g>
       </g>
       <g>
        <g>
         <g>
          <g>
           <g>
            <g>
             <g>
              <g>
               <g>
                <g>
                 <path class="fil11" d="M2042.54 2776.81c-0,0.97 -8.3,2.15 -21.69,0.6 -13.34,-1.5 -31.67,-6.42 -49.77,-16.43 -18.07,-10.07 -31.93,-23.04 -40.25,-33.57 -8.39,-10.55 -11.78,-18.22 -10.95,-18.74 2,-1.56 20.33,26.23 55.15,45.19 34.48,19.53 67.77,20.43 67.5,22.95z"/>
                </g>
               </g>
              </g>
             </g>
            </g>
           </g>
          </g>
         </g>
        </g>
       </g>
       <g>
        <g>
         <g>
          <g>
           <g>
            <g>
             <g>
              <g>
               <g>
                <g>
                 <path class="fil11" d="M2032.12 2744.3c-1.69,1.43 -13.24,-9.47 -24.38,-25.42 -11.17,-15.93 -17.45,-30.52 -15.52,-31.61 1.98,-1.13 11.26,11.36 22.19,26.95 10.9,15.61 19.46,28.61 17.71,30.08z"/>
                </g>
               </g>
              </g>
             </g>
            </g>
           </g>
          </g>
         </g>
        </g>
       </g>
       <g>
        <g>
         <g>
          <g>
           <g>
            <g>
             <g>
              <g>
               <g>
                <g>
                 <path class="fil11" d="M2090.86 2689.6c-1.65,1.44 -13.17,-9.27 -23.19,-25.64 -10.09,-16.34 -14.46,-31.44 -12.43,-32.27 2.12,-0.9 9.63,12.26 19.36,28 9.66,15.78 18.02,28.42 16.26,29.91z"/>
                </g>
               </g>
              </g>
             </g>
            </g>
           </g>
          </g>
         </g>
        </g>
       </g>
       <g>
        <g>
         <g>
          <g>
           <g>
            <g>
             <g>
              <g>
               <g>
                <g>
                 <path class="fil11" d="M2148.1 2648.31c-2.33,0.3 -5.99,-16.22 -13.73,-35.24 -7.58,-19.11 -16.36,-33.56 -14.47,-34.96 1.65,-1.36 13.96,11.68 22.02,31.92 8.18,20.19 8.31,38.12 6.18,38.28z"/>
                </g>
               </g>
              </g>
             </g>
            </g>
           </g>
          </g>
         </g>
        </g>
       </g>
      </g>
     </g>
     <g>
      <g>
       <g>
        <g>
         <g>
          <g>
           <g>
            <g>
             <g>
              <g>
               <g>
                <g>
                 <path class="fil10" d="M1551.2 2381.96c-93.81,-3.25 -291.29,-275.36 -290.07,-369.22l7.32 -564.86c-2.86,-151.81 83.09,-280.02 234.93,-278.68l14.02 0.94c141.13,9.49 251.37,125.73 253.25,267.17 1.75,131.59 2,277.02 -3.59,347.18 -11.57,145.24 -158.48,158.07 -158.48,158.07 -0.33,-0 -1.28,33.74 -2.3,76.49 -2.31,96.03 35.2,365.69 -60.79,362.37l5.72 0.54z"/>
                </g>
               </g>
              </g>
             </g>
            </g>
           </g>
          </g>
         </g>
         <g>
          <g>
           <g>
            <g>
             <g>
              <g>
               <g>
                <g>
                 <g>
                  <path class="fil11" d="M1608.57 1942.56c0,0 -91.99,-0.78 -185.51,-68.68 0,0 38.19,112.35 184.11,109.01l1.39 -40.33z"/>
                 </g>
                </g>
               </g>
              </g>
             </g>
            </g>
           </g>
          </g>
         </g>
         <g>
          <g>
           <g>
            <g>
             <g>
              <g>
               <g>
                <g>
                 <g>
                  <g>
                   <g>
                    <g>
                     <g>
                      <g>
                       <g>
                        <path class="fil5" d="M1721.47 1556.49c-0.34,10.99 -9.94,19.75 -21.43,19.6 -11.46,-0.16 -20.49,-9.17 -20.13,-20.16 0.35,-10.98 9.94,-19.76 21.4,-19.61 11.48,0.16 20.51,9.19 20.16,20.17z"/>
                       </g>
                      </g>
                     </g>
                    </g>
                   </g>
                  </g>
                 </g>
                </g>
               </g>
              </g>
             </g>
            </g>
           </g>
          </g>
         </g>
         <g>
          <g>
           <g>
            <g>
             <g>
              <g>
               <g>
                <g>
                 <g>
                  <g>
                   <g>
                    <g>
                     <g>
                      <g>
                       <g>
                        <g>
                         <path class="fil5" d="M1735.42 1499.43c-2.76,2.53 -17.7,-10.17 -40.04,-11.61 -22.3,-1.76 -39.46,8.63 -41.7,5.73 -1.11,-1.29 1.84,-6 9.33,-10.72 7.37,-4.7 19.7,-8.93 33.61,-7.94 13.91,1.02 25.27,6.92 31.65,12.62 6.52,5.74 8.51,10.79 7.16,11.92z"/>
                        </g>
                       </g>
                      </g>
                     </g>
                    </g>
                   </g>
                  </g>
                 </g>
                </g>
               </g>
              </g>
             </g>
            </g>
           </g>
          </g>
         </g>
         <g>
          <g>
           <g>
            <g>
             <g>
              <g>
               <g>
                <g>
                 <g>
                  <g>
                   <g>
                    <g>
                     <g>
                      <g>
                       <g>
                        <path class="fil5" d="M1517.03 1551.96c-0.35,10.99 -9.94,19.75 -21.43,19.59 -11.46,-0.15 -20.49,-9.16 -20.14,-20.15 0.35,-10.99 9.94,-19.76 21.41,-19.61 11.48,0.15 20.51,9.19 20.16,20.17z"/>
                       </g>
                      </g>
                     </g>
                    </g>
                   </g>
                  </g>
                 </g>
                </g>
               </g>
              </g>
             </g>
            </g>
           </g>
          </g>
         </g>
         <g>
          <g>
           <g>
            <g>
             <g>
              <g>
               <g>
                <g>
                 <g>
                  <g>
                   <g>
                    <g>
                     <g>
                      <g>
                       <g>
                        <g>
                         <path class="fil5" d="M1516.1 1489.88c-2.76,2.54 -17.73,-10.16 -40.05,-11.6 -22.3,-1.76 -39.46,8.63 -41.71,5.73 -1.1,-1.29 1.82,-6 9.34,-10.72 7.37,-4.7 19.69,-8.93 33.61,-7.94 13.91,1.02 25.27,6.93 31.65,12.62 6.49,5.73 8.5,10.79 7.17,11.91z"/>
                        </g>
                       </g>
                      </g>
                     </g>
                    </g>
                   </g>
                  </g>
                 </g>
                </g>
               </g>
              </g>
             </g>
            </g>
           </g>
          </g>
         </g>
         <g>
          <g>
           <g>
            <g>
             <g>
              <g>
               <g>
                <g>
                 <g>
                  <g>
                   <g>
                    <g>
                     <g>
                      <g>
                       <g>
                        <path class="fil5" d="M1584.69 1666.92c-0.02,-1.28 14.03,-2.74 36.72,-4.11 5.74,-0.2 11.22,-0.97 12.44,-4.8 1.62,-4.03 -0.35,-10.34 -2.67,-17.17 -4.43,-14.16 -9.07,-29.01 -13.94,-44.57 -19.27,-63.42 -32.81,-115.41 -30.25,-116.16 2.57,-0.75 20.26,50.04 39.52,113.46 4.61,15.63 9.03,30.53 13.22,44.78 1.72,6.63 4.94,14.23 1.45,22.59 -1.82,4.16 -6.22,6.97 -9.94,7.71 -3.73,0.87 -6.95,0.72 -9.78,0.7 -22.72,-0.31 -36.78,-1.15 -36.78,-2.43z"/>
                       </g>
                      </g>
                     </g>
                    </g>
                   </g>
                  </g>
                 </g>
                </g>
               </g>
              </g>
             </g>
            </g>
           </g>
          </g>
         </g>
         <g>
          <g>
           <g>
            <g>
             <g>
              <g>
               <g>
                <g>
                 <g>
                  <g>
                   <g>
                    <path class="fil5" d="M1519.72 1406.25c-3.42,5.5 -24.69,-1.96 -51.05,-4.3 -26.31,-2.87 -48.62,0.26 -50.9,-5.79 -0.98,-2.89 3.82,-7.72 13.42,-11.71 9.52,-4 23.93,-6.67 39.72,-5.12 15.78,1.58 29.39,7.02 37.94,12.81 8.63,5.8 12.39,11.48 10.86,14.11z"/>
                   </g>
                  </g>
                 </g>
                </g>
               </g>
              </g>
             </g>
            </g>
           </g>
          </g>
         </g>
         <g>
          <g>
           <g>
            <g>
             <g>
              <g>
               <g>
                <g>
                 <g>
                  <g>
                   <g>
                    <path class="fil5" d="M1733.65 1446.84c-4.91,4.83 -22.84,-1.39 -44.72,-2.78 -21.83,-2.04 -40.61,1.3 -44.59,-4.24 -1.74,-2.67 1.44,-7.61 9.8,-11.99 8.23,-4.37 21.79,-7.59 36.81,-6.42 15.02,1.19 27.82,6.47 35.16,12.07 7.46,5.62 9.73,10.99 7.55,13.36z"/>
                   </g>
                  </g>
                 </g>
                </g>
               </g>
              </g>
             </g>
            </g>
           </g>
          </g>
         </g>
         <g>
          <g>
           <g>
            <g>
             <g>
              <g>
               <g>
                <path class="fil10" d="M1273.08 1556.31c-2.41,-1.24 -97.89,-36.26 -101.4,63.33 -3.51,99.6 97.2,82.57 97.48,79.72 0.27,-2.85 3.93,-143.06 3.93,-143.06z"/>
               </g>
              </g>
             </g>
            </g>
           </g>
          </g>
         </g>
         <g>
          <g>
           <g>
            <g>
             <g>
              <g>
               <g>
                <g>
                 <path class="fil11" d="M1240.06 1660.57c-0.43,-0.33 -1.78,1.15 -4.76,2.39 -2.91,1.21 -7.85,1.94 -12.98,-0.19 -10.38,-4.23 -18.65,-21.25 -18.5,-39.22 0.07,-9.07 2.27,-17.64 5.73,-24.67 3.3,-7.18 8.19,-12.11 13.52,-12.86 5.31,-1.03 8.95,2.27 10.07,5.12 1.24,2.83 0.53,4.8 1.06,4.99 0.27,0.26 2.2,-1.59 1.54,-5.74 -0.34,-1.99 -1.43,-4.39 -3.7,-6.38 -2.32,-2.03 -5.8,-3.14 -9.5,-2.87 -7.7,0.26 -14.87,7.08 -18.67,14.8 -4.23,7.74 -6.92,17.36 -6.99,27.55 -0.07,20.09 9.54,39.24 23.8,43.9 6.94,2.07 12.86,0.17 15.96,-2.08 3.17,-2.35 3.78,-4.56 3.43,-4.75z"/>
                </g>
               </g>
              </g>
             </g>
            </g>
           </g>
          </g>
         </g>
        </g>
       </g>
       <g>
        <g>
         <g>
          <g>
           <g>
            <g>
             <g>
              <path class="fil5" d="M1522.88 1677.34c-1.36,0.16 -2.31,5.57 -0.61,14.23 1.53,8.55 7.07,20.59 17.22,29.72 9.98,9.24 20.82,14.45 28.63,17.58 7.88,3.09 13.07,4.09 13.72,2.83 0.66,-1.31 -3.44,-4.7 -10.24,-9.37 -6.76,-4.7 -16.3,-10.64 -24.95,-18.7 -17.76,-15.78 -20.54,-36.91 -23.77,-36.28z"/>
             </g>
            </g>
           </g>
          </g>
         </g>
        </g>
       </g>
      </g>
     </g>
     <g>
      <g>
       <path class="fil5" d="M799.88 3409.03l-64.47 400.85 47.06 331.23 2.01 72 47.68 353.38c0,0 -17.73,333.04 -26.52,405.33 -8.79,72.3 22.44,1090.15 22.44,1090.15l323.88 -14.26c0,0 122.46,-1510.19 122,-1526.8 -0.46,-16.61 168.42,-1129.8 168.42,-1129.8l-642.5 17.92z"/>
      </g>
      <g>
       <path class="fil5" d="M1618.62 3470.9c0,0 -6.5,1356.49 -36.73,1434.92 -30.23,78.43 -881.22,921.66 -881.22,921.66l-269.41 -210.02 688.06 -925.98 42.3 -1292.55 457 71.97z"/>
      </g>
      <g>
       <g>
        <path class="fil7" d="M1392.74 3825.54c1.83,0.22 -38.42,342.76 -89.89,764.98 -51.49,422.36 -94.7,764.46 -96.54,764.24 -1.83,-0.22 38.41,-342.68 89.9,-765.05 51.48,-422.22 94.7,-764.39 96.53,-764.17z"/>
       </g>
      </g>
      <g>
       <g>
        <path class="fil7" d="M832.16 4566.48c0.12,0.01 0.13,1.15 0.05,3.36 -0.14,2.6 -0.31,5.82 -0.53,9.8 -0.65,9.13 -1.54,21.7 -2.67,37.63 -2.7,32.63 -5.73,79.93 -9.28,138.35 -6.57,116.89 -12.06,278.59 -10.61,457.24 1.05,178.7 6.67,340.43 9.7,457.52 1.36,58.15 2.46,105.38 3.24,138.68 0.19,15.97 0.33,28.57 0.43,37.72 -0.02,3.98 -0.04,7.21 -0.06,9.81 -0.05,2.21 -0.13,3.35 -0.25,3.35 -0.11,0 -0.26,-1.13 -0.43,-3.33 -0.16,-2.59 -0.36,-5.81 -0.61,-9.8 -0.41,-9.14 -0.97,-21.73 -1.69,-37.68 -1.29,-33.28 -3.11,-80.49 -5.36,-138.6 -4.25,-117.04 -10.61,-278.8 -11.66,-457.64 -1.45,-178.78 4.78,-340.67 12.57,-457.57 4.16,-58.44 7.91,-105.71 11.41,-138.29 1.66,-15.89 2.97,-28.43 3.93,-37.52 0.48,-3.96 0.87,-7.16 1.19,-9.74 0.3,-2.19 0.52,-3.31 0.63,-3.3z"/>
       </g>
      </g>
     </g>
     <g>
      <g>
       <path class="fil7" d="M1159.63 3796.87c0.83,1.65 -58.14,32.72 -131.69,69.39 -73.57,36.67 -133.87,65.06 -134.69,63.41 -0.82,-1.65 58.13,-32.72 131.7,-69.39 73.55,-36.67 133.85,-65.05 134.67,-63.4z"/>
      </g>
     </g>
     <g>
      <g>
       <path class="fil4" d="M1811.94 2747.46l162.62 146.24c0,0 -254.57,278.04 -333.22,339.55 -78.65,61.51 25.17,-419.63 25.17,-419.63l145.43 -66.16z"/>
      </g>
      <g>
       <path class="fil4" d="M1259.69 1877.86l-67.63 93.74 -263.22 97.35 -119.39 895.07 -75.34 799.21c0,0 105.34,-150.29 185.99,-152.41 80.65,-2.11 488.79,111.98 516.39,132.82l53.91 -180.96 43.67 209.51c0,0 76.64,17.28 116.67,-97.31l-16.99 -397.17c0,0 53.92,-716.06 50.91,-824.04 -3.01,-107.98 -76.07,-407.85 -76.07,-407.85l-27.23 88.41 -237.01 -202.13 -84.64 -54.23z"/>
      </g>
      <g>
       <path class="fil4" d="M1004.9 2041.66c0,0 -172.93,-0.58 -228.83,319.78 -55.91,320.36 -136.36,664.05 -94.96,792.57 41.41,128.52 203.88,498.78 203.88,498.78l222.8 -80.3 -91.39 -581.47 105.77 -569.07c0,0 13.06,-356.91 -117.27,-380.29z"/>
      </g>
      <g>
       <path class="fil10" d="M1203.74 3700.95c0,0 -106.15,-124.89 -114.24,-121.88l-176.45 63.6c0,0 -6.54,62.5 1.21,136.23 6.86,65.2 18.1,135.01 18.1,135.01l232.05 -123.76c0,0 9.78,48.34 22.69,75.33 12.91,26.99 57.68,-1.61 57.68,-1.61l-41.04 -162.93z"/>
      </g>
      <g>
       <g>
        <path class="fil5" d="M1122.17 2421.95c0,0 -0.39,3.48 -1.51,10.2 -1.2,6.94 -2.92,16.85 -5.15,29.75 -4.73,26.34 -11.63,64.73 -20.47,113.92 -18.11,98.9 -44.16,241.17 -76.11,415.66l0.01 -0.87c26.21,165.58 57.61,363.95 92.03,581.37l0.41 2.63 -2.51 0.91c-71.28,25.72 -146.13,52.74 -222.76,80.39l-2.94 1.06 -1.23 -2.85c-22.61,-52.46 -46.53,-107.95 -70.77,-164.2 -42.56,-100.71 -83.93,-199.12 -119.63,-295.99 -4.54,-12.07 -8.54,-24.32 -12.69,-36.44 -1.96,-6.11 -3.15,-12.55 -4.76,-18.79 -1.61,-6.27 -3.06,-12.54 -3.54,-18.92 -1.54,-12.69 -3.27,-25.3 -3.3,-37.91 -0.57,-12.6 -0.95,-25.13 -0.38,-37.56 1.07,-49.78 6,-98.23 12.29,-145.21 12.23,-94.06 28.87,-182.57 44.04,-265.42 15.44,-82.77 29.84,-159.89 42.98,-230.31 5.99,-35.26 13.01,-68.75 20.01,-100.33 4.49,-15.54 8.85,-30.64 13.08,-45.29 4.96,-14.41 10.48,-28.13 15.43,-41.51 21.91,-52.71 50.18,-94.37 79.87,-121.64 29.46,-27.64 58.53,-41.32 78.65,-47.48 10.11,-3.15 18.12,-4.43 23.48,-5.12 2.56,-0.19 4.56,-0.34 6.11,-0.45 1.37,-0 2.07,0.09 2.07,0.09 0,0 -2.76,0.28 -8.09,1.04 -5.3,0.91 -13.21,2.39 -23.17,5.73 -19.82,6.52 -48.38,20.44 -77.26,48.07 -29.11,27.28 -56.78,68.73 -78.21,121.19 -4.83,13.33 -10.23,26.98 -15.08,41.31 -4.12,14.58 -8.37,29.61 -12.75,45.09 -6.8,31.44 -13.63,64.75 -19.49,100.13 -12.9,70.48 -27.02,147.65 -42.18,230.48 -14.93,82.86 -31.35,171.37 -43.38,265.2 -6.19,46.87 -11.02,95.17 -12.02,144.53 -0.56,12.35 -0.16,24.73 0.43,37.16 0.04,12.49 1.76,24.83 3.28,37.26 0.47,6.28 1.89,12.35 3.45,18.39 1.57,6.06 2.68,12.2 4.63,18.24 4.14,12.04 8.1,24.18 12.65,36.22 35.68,96.54 77.1,194.95 119.63,295.6 24.22,56.23 48.11,111.71 70.7,164.15l-4.17 -1.79c76.65,-27.59 151.53,-54.55 222.83,-80.21l-2.09 3.53c-33.94,-217.48 -64.9,-415.92 -90.75,-581.56l-0.07 -0.44 0.08 -0.43c32.88,-174.32 59.69,-316.45 78.33,-415.25 9.43,-49.07 16.78,-87.38 21.83,-113.66 2.55,-12.84 4.51,-22.7 5.88,-29.62 1.37,-6.67 2.26,-10.06 2.26,-10.06z"/>
       </g>
      </g>
      <g>
       <g>
        <path class="fil5" d="M1581.34 2134.22c0.31,0.16 -1.52,4.31 -5.17,11.88 -4.2,8.41 -9.58,19.21 -16.15,32.38 -14.76,28.55 -34.78,67.27 -58.18,112.52l-2.27 4.39 -2.94 -4.03c-20.7,-28.38 -44.47,-59.11 -70.58,-90.45 -51.21,-61.68 -102.02,-113.65 -140.03,-149.9 -18.94,-18.21 -34.66,-32.54 -45.47,-42.51 -10.89,-9.87 -16.78,-15.51 -16.48,-15.86 0.3,-0.35 6.76,4.61 18.19,13.9 11.35,9.38 27.59,23.2 47,41.02 38.94,35.46 90.51,87.15 141.93,149.07 26.22,31.47 49.93,62.44 70.43,91.14l-5.2 0.36c24.26,-44.79 45.02,-83.12 60.32,-111.38 7.2,-12.84 13.1,-23.37 17.69,-31.57 4.2,-7.28 6.61,-11.11 6.91,-10.95z"/>
       </g>
      </g>
      <g>
       <g>
        <path class="fil5" d="M1639.66 2181.96c2.25,-0.8 13.42,39.86 5.45,94.06l-1.4 9.52 -4.71 -8.74c-2.5,-4.64 -5,-9.58 -7.35,-14.68 -12.56,-28.21 -19.31,-54.97 -26.24,-73.49 -6.64,-18.65 -12.15,-29.65 -11.25,-30.15 0.7,-0.42 7.76,9.92 15.65,28.42 8.16,18.37 15.69,45.04 27.92,72.44 2.29,4.97 4.69,9.77 7.07,14.3l-6.11 0.78c4.78,-25.15 3.5,-49.19 3.1,-65.68 -0.57,-16.77 -2.8,-26.5 -2.13,-26.78z"/>
       </g>
      </g>
      <g>
       <g>
        <path class="fil5" d="M1592.69 2180.39c0.11,0 0.21,1.22 0.29,3.59 0.05,2.75 0.11,6.21 0.17,10.51 0.12,9.24 0.06,22.86 -0.19,40.41 -0.49,35.09 -2.01,85.86 -5.44,148.51 -6.63,125.35 -21.92,297.99 -37.59,488.72 -16.3,190.54 -31.06,362.99 -41.79,488.41 -5.63,62.09 -10.21,112.5 -13.43,147.94 -1.69,17.07 -3.03,30.51 -3.99,40.2 -0.49,4.27 -0.89,7.7 -1.2,10.44 -0.31,2.35 -0.52,3.55 -0.64,3.54 -0.12,-0.01 -0.13,-1.23 -0.04,-3.59 0.14,-2.75 0.32,-6.2 0.54,-10.5 0.66,-9.71 1.57,-23.19 2.74,-40.3 2.71,-35.49 6.56,-85.96 11.31,-148.12 10.23,-125.46 24.29,-297.97 39.83,-488.57 15.67,-190.74 31.71,-363.3 39.54,-488.44 4.03,-62.57 6.27,-113.26 7.56,-148.3 0.61,-17.13 1.09,-30.63 1.44,-40.36 0.2,-4.3 0.36,-7.75 0.49,-10.5 0.15,-2.36 0.28,-3.57 0.39,-3.57z"/>
       </g>
      </g>
      <g>
       <g>
        <path class="fil5" d="M1686.02 2491.61c1.84,0.14 -8.11,177.13 -22.22,395.26 -14.12,218.21 -27.06,394.93 -28.9,394.79 -1.84,-0.14 8.11,-177.09 22.22,-395.3 14.11,-218.13 27.06,-394.89 28.89,-394.75z"/>
       </g>
      </g>
      <g>
       <g>
        <path class="fil5" d="M1165.42 2277.52c-1.22,0.07 -1.2,-15.97 -7.56,-40.57 -6.18,-24.44 -20.27,-57.56 -46.41,-86.03 -26.17,-28.47 -57.96,-45.33 -81.8,-53.56 -23.98,-8.42 -39.96,-9.76 -39.78,-10.97 0.04,-0.41 4.05,-0.5 11.25,0.22 7.2,0.7 17.57,2.53 30.01,6.26 24.77,7.25 58.11,23.99 85.24,53.52 27.11,29.53 40.97,64.16 46.09,89.46 2.66,12.72 3.59,23.2 3.69,30.44 0.11,7.24 -0.32,11.22 -0.73,11.23z"/>
       </g>
      </g>
      <g>
       <g>
        <path class="fil12" d="M1644.03 3227.8c48.73,-131.58 56.39,-277.55 24.45,-414.18 -8.76,139.13 -16.04,278.27 -24.8,417.4l0.35 -3.21z"/>
       </g>
      </g>
      <g>
       <g>
        <path class="fil12" d="M1112.96 2471.53c-57.08,296.48 -103.43,577.78 -96.97,538.87l91.8 562.09 54.19 80.3c-47.18,-377.24 -86.12,-805.56 -49.03,-1181.25z"/>
       </g>
      </g>
     </g>
    </g>
    <g>
     <g>
      <g>
       <path class="fil5" d="M1874.31 1267.61c-0.86,-19.2 -12.87,-37.11 -29.52,-46.46 0.27,-5.76 0.13,-11.35 -0.62,-16.62 -4.74,-33.44 -34.44,-62.83 -68.22,-63.32 -3.65,-25.78 -22.42,-48.85 -46.93,-57.66 -24.51,-8.8 -53.67,-2.95 -72.89,14.63 -23.11,-23.44 -60.7,-31.2 -91.2,-18.85 -3.83,1.55 -7.71,3.52 -10.08,6.91 -1.56,2.22 -2.1,5.17 -1.52,7.76 -8.12,-15.39 -24.05,-26.49 -41.39,-28.31 -5.91,-0.62 -11.87,-0.05 -17.63,1.35 -15.83,0.63 -31.26,6.39 -42.3,18 -38.79,-17 -89.35,1.25 -108.35,39.11 -32.68,-0.55 -64.61,20.97 -76.37,51.47 -21.03,0.27 -41.5,12.43 -51.8,30.77 -10.29,18.33 -10.01,42.15 0.71,60.24 0,0 -70.91,10.98 -57.15,74.55 7.03,32.48 50.19,29.94 50.19,29.94l39.44 205.13c-0.94,0.94 10.89,25.44 23.25,21.21 12.37,-4.23 20.07,-16.16 27.78,-26.71 8.83,-12.1 19.03,-23.69 23.65,-37.93 4.63,-14.24 1.82,-32.35 -10.96,-40.16 17.62,-4.49 29.95,-21.27 34.46,-38.89 4.5,-17.62 2.6,-36.16 0.66,-54.23 -2.86,-26.68 -5.72,-53.36 -8.57,-80.04 36.2,1.64 72.52,-18.74 89.99,-50.49 24.42,21.74 68.44,14.16 84.19,-14.49 9.06,36.54 50.65,61.47 87.14,52.24 -5.39,20.36 30.3,42.11 50.22,48.98 19.91,6.86 46.35,-5.69 46.35,-5.69 0,0 20.85,14.35 39.31,17.31 0,0 0,0 0,0 0,0 0,0 0,0 0.72,0.11 1.44,0.24 2.15,0.31 27.97,4.71 57.26,-18.94 72.62,-42.72 7.21,1.13 14.58,1.05 21.67,-0.8 24.5,-6.39 42.82,-31.23 41.69,-56.52z"/>
      </g>
     </g>
    </g>
    <g>
     <g>
      <path class="fil8" d="M1063.14 2759.54c-0.51,1.02 -18.69,-7.52 -48.63,-19.82 -29.93,-12.32 -71.89,-27.85 -119.43,-41.04 -47.58,-13.12 -91.56,-21.37 -123.57,-26.18 -32,-4.84 -51.98,-6.85 -51.9,-7.98 0.04,-0.5 5.07,-0.54 14.17,-0.19 9.1,0.29 22.23,1.31 38.41,3.1 32.35,3.54 76.86,11.05 124.82,24.28 47.93,13.3 89.96,29.72 119.53,43.32 14.8,6.78 26.59,12.65 34.54,17.07 7.98,4.37 12.28,6.99 12.06,7.44z"/>
     </g>
    </g>
    <g>
     <g>
      <path class="fil8" d="M936.3 3628.5c-0.12,0.04 -0.71,-1.18 -1.77,-3.62 -1.17,-2.83 -2.65,-6.41 -4.5,-10.87 -3.99,-10.11 -9.54,-24.2 -16.61,-42.1 -14.15,-36.66 -34.58,-89.76 -57.07,-156.39 -22.35,-66.61 -47,-146.95 -64.02,-238.57 -8.45,-45.77 -15.13,-94.32 -17.7,-145 -2.54,-50.66 -1.3,-103.33 4.28,-156.79 10.82,-107.1 34.29,-206.98 55.51,-297.37 21.51,-90.42 42.66,-171.41 61.39,-239.15 18.72,-67.74 34.88,-122.27 46.42,-159.83 5.78,-18.35 10.33,-32.79 13.6,-43.16 1.54,-4.58 2.77,-8.26 3.74,-11.16 0.88,-2.5 1.39,-3.77 1.51,-3.73 0.12,0.04 -0.15,1.37 -0.8,3.94 -0.8,2.96 -1.8,6.7 -3.06,11.37 -2.95,10.46 -7.07,25.02 -12.3,43.54 -10.71,37.8 -26.11,92.51 -44.19,160.38 -18.07,67.87 -38.7,148.92 -59.83,239.35 -20.85,90.42 -44.05,190.09 -54.8,296.57 -5.55,53.17 -6.82,105.41 -4.39,155.7 2.44,50.32 8.95,98.59 17.17,144.16 16.56,91.21 40.62,171.46 62.31,238.16 21.83,66.72 41.52,120.06 54.85,157.02 6.52,18.1 11.65,32.34 15.33,42.57 1.57,4.57 2.84,8.24 3.83,11.13 0.83,2.52 1.19,3.83 1.07,3.88z"/>
     </g>
    </g>
    <g>
     <g>
      <path class="fil8" d="M1040.63 3210.76c0.18,0.47 -3.76,2.44 -11.04,5.6 -7.27,3.21 -17.98,7.37 -31.36,12.11 -26.76,9.5 -64.5,20.67 -107.05,29.13 -42.59,8.41 -81.73,12.48 -110.09,13.89 -14.18,0.72 -25.67,0.95 -33.61,0.76 -7.94,-0.15 -12.33,-0.47 -12.34,-0.97 -0.03,-1.11 17.46,-2.16 45.57,-4.89 28.11,-2.71 66.82,-7.55 109.07,-15.88 42.22,-8.39 79.85,-18.68 106.87,-26.89 27.02,-8.19 43.6,-13.89 44,-12.85z"/>
     </g>
    </g>
    <g>
     <g>
      <path class="fil8" d="M1158.79 2330.31c-1.18,0.81 -12.38,-16.67 -35.37,-40.51 -11.39,-12.01 -26.23,-25.03 -43.7,-38.13 -17.72,-12.74 -38.22,-25.36 -61.03,-36.09 -22.95,-10.45 -45.83,-17.92 -67.03,-23.19 -21.29,-4.83 -40.83,-7.73 -57.35,-8.64 -33.06,-2.1 -53.63,0.67 -53.77,-0.75 -0.06,-0.49 5.02,-1.41 14.32,-2.65 4.65,-0.7 10.36,-1.35 17.03,-1.46 6.66,-0.2 14.27,-0.83 22.67,-0.24 16.82,0.27 36.8,2.67 58.59,7.25 21.69,5 45.14,12.44 68.57,23.11 23.29,10.95 44.13,24.02 61.98,37.31 17.59,13.65 32.35,27.33 43.44,39.98 5.88,6.02 10.32,12.23 14.48,17.44 4.23,5.16 7.43,9.93 9.91,13.93 5.08,7.9 7.67,12.37 7.25,12.64z"/>
     </g>
    </g>
    <g>
     <g>
      <path class="fil8" d="M1277.72 3677.74c-0.13,-0 -0.22,-1.52 -0.28,-4.48 -0.02,-3.35 -0.06,-7.68 -0.09,-13.13 0.07,-12.02 0.19,-28.94 0.33,-50.5 0.61,-44.33 1.48,-107.65 2.55,-185.69 2.86,-157.2 6.79,-373.58 11.13,-612.59 2.16,-119.65 3.82,-233.61 0.02,-337.12 -1.78,-51.75 -5.11,-100.85 -9.57,-146.67 -4.4,-45.8 -10.45,-88.3 -20.72,-125.94 -10.08,-37.67 -24.39,-70.28 -41.28,-96.18 -16.74,-26.04 -35.51,-45.43 -52.45,-59.07 -17.04,-13.61 -32.09,-21.67 -42.52,-26.44 -10.43,-4.83 -16.26,-6.61 -16.12,-7 0,0 6,1.23 16.71,5.67 10.7,4.38 26.15,12.12 43.68,25.57 17.43,13.48 36.78,32.85 54.09,59.06 17.48,26.07 32.33,59.06 42.83,97.04 10.71,37.98 17.09,80.79 21.76,126.7 4.74,45.93 8.29,95.16 10.26,147.02 4.18,103.74 2.71,217.86 0.55,337.48 -5.17,239 -9.85,455.37 -13.26,612.55 -2.04,78.03 -3.69,141.33 -4.84,185.66 -0.72,21.54 -1.28,38.46 -1.69,50.47 -0.26,5.45 -0.46,9.78 -0.62,13.13 -0.18,2.96 -0.33,4.47 -0.46,4.47z"/>
     </g>
    </g>
    <g>
     <g>
      <path class="fil8" d="M1501.94 3381.73c-0.09,0.49 -6.34,-0.15 -17.56,-1.75 -11.23,-1.59 -27.43,-4.18 -47.41,-7.59 -39.96,-6.81 -95.01,-17.06 -155.57,-29.57 -60.59,-12.52 -115.2,-24.94 -154.58,-34.52 -19.69,-4.79 -35.59,-8.83 -46.52,-11.82 -10.94,-2.98 -16.93,-4.86 -16.82,-5.35 0.11,-0.48 6.32,0.47 17.45,2.61 12.54,2.56 28.29,5.76 47.02,9.58 41.14,8.61 95.17,19.91 154.92,32.42 59.79,12.19 113.87,23.22 155.06,31.63 18.71,3.92 34.44,7.22 46.96,9.84 11.07,2.45 17.15,4.04 17.06,4.52z"/>
     </g>
    </g>
    <g>
     <g>
      <path class="fil8" d="M1539.57 2883.66c-0.15,1.99 -111.66,-4.73 -249.03,-15.02 -137.42,-10.29 -248.66,-20.24 -248.51,-22.23 0.15,-1.99 111.63,4.73 249.05,15.02 137.37,10.29 248.64,20.24 248.49,22.23z"/>
     </g>
    </g>
    <g>
     <g>
      <path class="fil8" d="M1576.04 2445.26c0.03,0.5 -6.35,1.28 -17.91,2.27 -11.56,1 -28.31,2.09 -49.03,3.14 -41.43,2.12 -98.74,3.76 -162.04,3.39 -63.33,-0.39 -120.62,-2.72 -162.02,-5.33 -20.7,-1.3 -37.43,-2.58 -48.98,-3.73 -11.55,-1.12 -17.92,-1.98 -17.89,-2.48 0.03,-0.5 6.46,-0.59 18.05,-0.33 13.03,0.38 29.47,0.86 49.06,1.43 41.41,1.3 98.61,2.81 161.82,3.2 63.18,0.36 120.4,-0.47 161.82,-1.27 19.59,-0.34 36.04,-0.62 49.07,-0.85 11.59,-0.12 18.02,0.05 18.05,0.55z"/>
     </g>
    </g>
    <g>
     <g>
      <path class="fil8" d="M1280.28 2035.93c0.13,1.08 -12.69,3.36 -33.18,7.72 -20.5,4.34 -48.63,11.11 -79.01,20.87 -30.38,9.81 -57.18,20.72 -76.35,29.17 -19.19,8.42 -30.93,14.05 -31.44,13.09 -0.44,-0.8 10.46,-8.03 29.25,-17.72 18.76,-9.7 45.59,-21.5 76.33,-31.43 30.74,-9.88 59.42,-15.94 80.31,-19.02 20.91,-3.09 33.99,-3.59 34.1,-2.69z"/>
     </g>
    </g>
    <g>
     <g>
      <path class="fil8" d="M1558.43 2192.86c-0.35,0.35 -4.9,-3.57 -12.81,-10.94 -8.96,-8.45 -20.1,-18.96 -33.3,-31.43 -28.08,-26.56 -67.15,-62.92 -111.37,-101.89 -44.26,-38.96 -85.28,-73.12 -115.17,-97.61 -14.03,-11.52 -25.86,-21.24 -35.38,-29.06 -8.32,-6.91 -12.78,-10.93 -12.48,-11.33 0.3,-0.4 5.33,2.86 14.19,9.09 8.87,6.21 21.46,15.52 36.84,27.28 30.76,23.51 72.41,57.14 116.78,96.19 44.33,39.06 82.96,76.11 110.17,103.66 13.61,13.76 24.44,25.08 31.72,33.1 7.31,8 11.18,12.58 10.82,12.93z"/>
     </g>
    </g>
    <g>
     <g>
      <path class="fil8" d="M1467.38 2042.92c1.47,1.35 -17.45,24.48 -42.27,51.67 -24.82,27.19 -46.13,48.14 -47.61,46.79 -1.48,-1.35 17.44,-24.48 42.27,-51.67 24.81,-27.19 46.13,-48.13 47.61,-46.79z"/>
     </g>
    </g>
    <g>
     <g>
      <path class="fil8" d="M1685.76 2453.31c-0.35,2.04 -23.08,-0.35 -51.11,-1.53 -28.04,-1.28 -50.89,-0.9 -51.06,-2.97 -0.19,-1.91 22.8,-5.56 51.37,-4.26 28.56,1.21 51.15,6.87 50.8,8.76z"/>
     </g>
    </g>
    <g>
     <g>
      <path class="fil8" d="M1652.96 2916.67c-0.05,2 -23.33,3.07 -51.99,2.4 -28.67,-0.67 -51.87,-2.83 -51.83,-4.83 0.05,-2 23.32,-3.07 52,-2.4 28.66,0.67 51.87,2.83 51.82,4.83z"/>
     </g>
    </g>
    <g>
     <g>
      <path class="fil8" d="M1643.7 2285.54c0.13,0 0.25,1.28 0.37,3.78 0.09,2.92 0.2,6.58 0.34,11.12 0.15,10.32 0.36,24.62 0.62,42.76 0.35,18.58 0.11,41.3 -0.3,67.68 -0.22,26.39 -0.81,56.43 -2,89.61 -3.74,132.8 -15.06,315.95 -29.34,518.03 -14.27,202.15 -26.56,385.15 -31.69,517.79 -1.5,33.15 -2.53,63.15 -3.11,89.5 -0.77,26.35 -1.48,49.05 -1.55,67.6 -0.31,18.13 -0.56,32.42 -0.73,42.74 -0.15,4.54 -0.28,8.2 -0.37,11.12 -0.13,2.5 -0.25,3.79 -0.38,3.79 -0.12,0 -0.24,-1.28 -0.36,-3.78 -0.09,-2.92 -0.2,-6.58 -0.35,-11.12 -0.15,-10.32 -0.36,-24.62 -0.63,-42.76 -0.36,-18.57 -0.06,-41.29 0.32,-67.67 0.2,-26.39 0.87,-56.42 2.05,-89.61 3.82,-132.8 15.32,-315.96 29.59,-518.11 14.29,-202.07 26.4,-385.07 31.44,-517.71 1.51,-33.15 2.46,-63.15 3.06,-89.51 0.79,-26.35 1.44,-49.05 1.52,-67.61 0.31,-18.13 0.56,-32.43 0.74,-42.74 0.15,-4.54 0.28,-8.2 0.37,-11.12 0.13,-2.5 0.25,-3.79 0.37,-3.79z"/>
     </g>
    </g>
    <g>
     <g>
      <path class="fil8" d="M1636.79 3379.8c0.36,1.96 -28.96,9 -65.49,15.7 -36.54,6.71 -66.45,10.56 -66.81,8.59 -0.36,-1.96 28.96,-9 65.5,-15.71 36.53,-6.71 66.44,-10.56 66.8,-8.59z"/>
     </g>
    </g>
    <g>
     <g>
      <path class="fil8" d="M1898.39 2831.32c0.51,0.93 -13.68,9.6 -36.44,23.79 -22.77,14.18 -53.98,34.11 -87.59,57.39 -33.59,23.33 -63.2,45.58 -84.45,61.94 -21.26,16.35 -34.35,26.6 -35.04,25.79 -0.61,-0.71 11.31,-12.34 31.83,-29.77 20.5,-17.44 49.78,-40.46 83.54,-63.9 33.78,-23.41 65.59,-42.76 89.11,-55.85 23.52,-13.11 38.59,-20.2 39.04,-19.39z"/>
     </g>
    </g>
    <g>
     <g>
      <path class="fil8" d="M1853.99 3017.69c-0.94,0.47 -7.95,-11.91 -19.28,-31.84 -11.33,-19.94 -27.17,-47.33 -45.67,-76.99 -18.52,-29.65 -36.19,-55.91 -49.13,-74.85 -12.93,-18.94 -20.97,-30.67 -20.14,-31.3 0.75,-0.58 10.24,10.06 24.28,28.3 14.05,18.24 32.48,44.2 51.12,74.02 18.6,29.82 33.83,57.78 44.04,78.41 10.22,20.63 15.62,33.83 14.77,34.24z"/>
     </g>
    </g>
   </g>
   <g>
    <g>
     <path class="fil5" d="M5920.82 6293.78c0,2 -1321.66,3.62 -2951.63,3.62 -1630.54,0 -2951.92,-1.62 -2951.92,-3.62 0,-2 1321.38,-3.61 2951.92,-3.61 1629.97,0 2951.63,1.62 2951.63,3.61z"/>
    </g>
   </g>
  </g>
 </g>
</svg>
